<svg xmlns="http://www.w3.org/2000/svg" xmlns:xlink="http://www.w3.org/1999/xlink" viewBox="0 0 689.5 421.2"><defs><style>.cls-1{isolation:isolate;}.cls-2{fill:url(#linear-gradient);}.cls-3{fill:#cca371;}.cls-4{fill:#bf8c4e;}.cls-5{fill:#fbb02d;}.cls-6{fill:#fb6107;}.cls-7{fill:#efc786;}.cls-8{fill:#ffdc9e;}.cls-9{fill:#e2b574;}.cls-10,.cls-15,.cls-16{fill:none;}.cls-10{stroke:#e8c482;stroke-linecap:round;stroke-linejoin:round;stroke-width:1.52px;}.cls-11{fill:url(#linear-gradient-2);}.cls-12,.cls-31{fill:#fff;}.cls-13{fill:#1a2e35;}.cls-14{fill:#294b54;}.cls-15,.cls-16{stroke:#1a2e35;stroke-miterlimit:10;}.cls-15{stroke-width:0.75px;}.cls-16{stroke-width:0.89px;}.cls-17{fill:#005963;}.cls-18{fill:#004649;}.cls-19{fill:#ea9103;}.cls-20{fill:#e8c482;}.cls-21{fill:#00a896;}.cls-22{fill:#008975;}.cls-23{fill:#feaa92;}.cls-24{fill:#d1654b;}.cls-25{fill:#ffccc2;}.cls-25,.cls-26{mix-blend-mode:multiply;}.cls-27{fill:#ffc9c0;}.cls-28{fill:#eddad6;}.cls-29{fill:#a83924;}.cls-30{fill:#002b2b;}.cls-31{opacity:0.2;}.cls-32{fill:#ed9e20;}.cls-33{fill:url(#linear-gradient-3);}.cls-34{fill:url(#linear-gradient-4);}.cls-35{fill:url(#linear-gradient-5);}</style><linearGradient id="linear-gradient" x1="469.87" y1="124.98" x2="566.88" y2="124.98" gradientUnits="userSpaceOnUse"><stop offset="0" stop-color="#fff" stop-opacity="0.2"/><stop offset="1" stop-color="#fff"/></linearGradient><linearGradient id="linear-gradient-2" x1="227.55" y1="208.4" x2="312.54" y2="208.4" xlink:href="#linear-gradient"/><linearGradient id="linear-gradient-3" x1="106.53" y1="285.72" x2="106.53" y2="267.59" xlink:href="#linear-gradient"/><linearGradient id="linear-gradient-4" x1="239.51" y1="132.31" x2="239.51" y2="105.75" xlink:href="#linear-gradient"/><linearGradient id="linear-gradient-5" x1="590.41" y1="284.92" x2="590.41" y2="269.53" xlink:href="#linear-gradient"/></defs><g class="cls-1"><g id="Layer_2" data-name="Layer 2"><g id="OBJECTS"><path class="cls-2" d="M556.7,131.6c-3.7,0-3.1,1.2-3.1-.4a13.5,13.5,0,0,0-22.5-10.1c-8.8-15.5-31.7-13.8-38.1,2.8a15.6,15.6,0,0,0-23.1,13.7,13.4,13.4,0,0,0,.1,2h96.9A10,10,0,0,0,556.7,131.6Z"/><path class="cls-3" d="M105.4,417.9V247.8a89.8,89.8,0,0,1,89.8-89.7h30.1a53.7,53.7,0,0,1,2.5-21.6c5.5-16.3,19.3-30.2,41.2-41.3,19.4-9.8,35.8-21.5,47.5-33.8,8.8-9.4,15-19.3,16.8-27.1L340.8,0l10.1,33.3c5.6,15.8,18.1,39,62.5,58.5,46.2,20.4,50.1,49,48.2,66.3h40.8a89.8,89.8,0,0,1,89.8,89.7V417.9Z"/><path class="cls-4" d="M582.9,408.7V247.8a80.4,80.4,0,0,0-80.5-80.5H450.5c2.9-12,11.1-44.1-40.9-67-43.5-19.2-59.9-42.6-67.4-63.9-3.9,16.9-23.9,44.2-69.1,67.1s-39.4,52.2-37,63.8H195.2a80.4,80.4,0,0,0-80.5,80.5V408.7Z"/><path class="cls-5" d="M152.4,340.8c0-18.1,20.7-7.6,27-23.7,6.3,16.1,27,5.6,27,23.7Z"/><path class="cls-6" d="M181.9,315.8a2.4,2.4,0,1,0-2.4,2.2A2.3,2.3,0,0,0,181.9,315.8Z"/><path class="cls-5" d="M187.3,308.7a7.5,7.5,0,0,1-9.7-2.4,6.2,6.2,0,0,1,2.6-8.8,9.6,9.6,0,0,0-4,1.1,7.8,7.8,0,0,0-3.3,11.2,9.5,9.5,0,0,0,12.3,3,8.1,8.1,0,0,0,4.5-6.2A6.1,6.1,0,0,1,187.3,308.7Z"/><rect class="cls-7" x="152.4" y="340.6" width="53.9" height="4.76"/><rect class="cls-8" x="146.4" y="345.4" width="66" height="69.57"/><path class="cls-9" d="M165.7,415s.3-22.2,0-39.3c-.2-12.9,5.8-6.1,13.7-17,8,10.9,13.9,4.1,13.7,17-.3,17.1,0,39.3,0,39.3Z"/><polyline class="cls-10" points="154.8 415 154.8 351.3 204 351.3 204 415"/><path class="cls-11" d="M303.5,213.8c-3.2,0-2.7,1.1-2.7-.3,0-10.2-12.1-15.5-19.7-8.8-7.7-13.6-27.7-12.1-33.4,2.5a13.6,13.6,0,0,0-20.2,11.9,9.9,9.9,0,0,0,.3,2.4h84.7A8.6,8.6,0,0,0,303.5,213.8Z"/><path class="cls-5" d="M216.1,328.9c0-8.7,7.5-3.7,9.8-11.4,2.3,7.7,9.8,2.7,9.8,11.4Z"/><rect class="cls-7" x="218.6" y="334" width="14.6" height="77.07"/><polygon class="cls-8" points="233.2 337.6 218.6 337.6 216.4 328.7 235.4 328.7 233.2 337.6"/><path class="cls-5" d="M229.3,315.8a3.4,3.4,0,0,1-4.5-1.2,3.3,3.3,0,0,1,1.2-4.5,3.7,3.7,0,0,0-1.8.5,4.3,4.3,0,0,0-1.6,5.7,4.1,4.1,0,0,0,5.7,1.5,4.1,4.1,0,0,0,2.1-3.1A5.7,5.7,0,0,1,229.3,315.8Z"/><path class="cls-9" d="M221.7,355.5s.1-.6,0-7.3c-.1-5.2,1.8-2.5,4.3-6.8,2.5,4.3,4.4,1.6,4.3,6.8-.1,6.7,0,7.3,0,7.3Z"/><path class="cls-5" d="M121.4,328.9c0-8.7,7.5-3.7,9.8-11.4,2.3,7.7,9.8,2.7,9.8,11.4Z"/><rect class="cls-7" x="123.9" y="334" width="14.6" height="77.07"/><polygon class="cls-8" points="138.5 337.6 123.9 337.6 121.7 328.7 140.7 328.7 138.5 337.6"/><path class="cls-5" d="M134.6,315.8a3.2,3.2,0,0,1-4.4-1.2,3.3,3.3,0,0,1,1.1-4.5,4.1,4.1,0,0,0-1.8.5,4.1,4.1,0,0,0-1.5,5.7,4,4,0,0,0,5.6,1.5,3.8,3.8,0,0,0,2.1-3.1A3.8,3.8,0,0,1,134.6,315.8Z"/><path class="cls-9" d="M127,355.5s.1-.6,0-7.3c-.1-5.2,1.8-2.5,4.3-6.8,2.5,4.3,4.4,1.6,4.3,6.8-.1,6.7,0,7.3,0,7.3Z"/><path class="cls-5" d="M485,340.8c0-18.1,20.7-7.6,27-23.7,6.2,16.1,26.9,5.6,26.9,23.7Z"/><path class="cls-6" d="M514.4,315.8a2.3,2.3,0,0,0-2.4-2.2,2.2,2.2,0,1,0,0,4.4A2.3,2.3,0,0,0,514.4,315.8Z"/><path class="cls-5" d="M519.9,308.7a7.5,7.5,0,0,1-9.7-2.4c-2-3.1-.8-7,2.6-8.8a10,10,0,0,0-4.1,1.1,7.8,7.8,0,0,0-3.3,11.2,9.6,9.6,0,0,0,12.4,3,8.2,8.2,0,0,0,4.4-6.2A6.6,6.6,0,0,1,519.9,308.7Z"/><rect class="cls-7" x="485" y="340.6" width="53.9" height="4.76"/><rect class="cls-8" x="479" y="345.4" width="66" height="69.57"/><path class="cls-9" d="M498.3,415s.3-22.2,0-39.3c-.3-12.9,5.7-6.1,13.7-17,7.9,10.9,13.9,4.1,13.6,17-.3,17.1,0,39.3,0,39.3Z"/><polyline class="cls-10" points="487.3 415 487.3 351.3 536.6 351.3 536.6 415"/><path class="cls-5" d="M548.6,328.9c0-8.7,7.5-3.7,9.8-11.4,2.3,7.7,9.8,2.7,9.8,11.4Z"/><rect class="cls-7" x="551.1" y="334" width="14.6" height="77.07"/><polygon class="cls-8" points="565.7 337.6 551.1 337.6 548.9 328.7 567.9 328.7 565.7 337.6"/><path class="cls-5" d="M561.8,315.8a3.2,3.2,0,0,1-4.4-1.2,3.3,3.3,0,0,1,1.1-4.5,4.1,4.1,0,0,0-1.8.5,4.1,4.1,0,0,0-1.5,5.7,4,4,0,0,0,5.6,1.5,3.8,3.8,0,0,0,2.1-3.1A3.8,3.8,0,0,1,561.8,315.8Z"/><path class="cls-9" d="M554.2,355.5s.1-.6,0-7.3c-.1-5.2,1.8-2.5,4.3-6.8,2.5,4.3,4.4,1.6,4.3,6.8-.1,6.7,0,7.3,0,7.3Z"/><path class="cls-5" d="M454,328.9c0-8.7,7.5-3.7,9.8-11.4,2.2,7.7,9.7,2.7,9.7,11.4Z"/><rect class="cls-7" x="456.5" y="334" width="14.6" height="77.07"/><polygon class="cls-8" points="471.1 337.6 456.5 337.6 454.3 328.7 473.3 328.7 471.1 337.6"/><path class="cls-5" d="M467.2,315.8a3.4,3.4,0,0,1-4.5-1.2,3.3,3.3,0,0,1,1.2-4.5,4.5,4.5,0,0,0-1.9.5,4.3,4.3,0,0,0-1.5,5.7,4.1,4.1,0,0,0,5.7,1.5,3.7,3.7,0,0,0,2-3.1A3.5,3.5,0,0,1,467.2,315.8Z"/><path class="cls-9" d="M459.5,355.5s.1-.6,0-7.3c0-5.2,1.9-2.5,4.4-6.8,2.5,4.3,4.4,1.6,4.3,6.8-.1,6.7,0,7.3,0,7.3Z"/><path class="cls-12" d="M240.4,271.7l.5.8a5.3,5.3,0,0,0,2.3,2.4l.9.5-.9.5a5.1,5.1,0,0,0-2.3,2.3l-.5.9-.5-.9a5.9,5.9,0,0,0-2.4-2.3l-.8-.5.8-.5a6.2,6.2,0,0,0,2.4-2.4Z"/><path class="cls-12" d="M269.3,180l.5.9a6.9,6.9,0,0,0,2.4,2.4l.8.4-.8.5a6.9,6.9,0,0,0-2.4,2.4l-.5.9-.5-.9a5.9,5.9,0,0,0-2.3-2.4l-.9-.5.9-.4a5.9,5.9,0,0,0,2.3-2.4Z"/><path class="cls-12" d="M440,197.8l.5.9a6.9,6.9,0,0,0,2.4,2.4l.8.5-.8.5a5.9,5.9,0,0,0-2.4,2.3l-.5.9-.5-.9a5.1,5.1,0,0,0-2.3-2.3l-.9-.5.9-.5a5.9,5.9,0,0,0,2.3-2.4Z"/><path class="cls-12" d="M390.8,126.5l.5.8a5.9,5.9,0,0,0,2.3,2.4l.9.5-.9.5a5.1,5.1,0,0,0-2.3,2.3l-.5.9-.5-.9a5.7,5.7,0,0,0-2.3-2.3l-.9-.5.9-.5a6.6,6.6,0,0,0,2.3-2.4Z"/><path class="cls-12" d="M453.2,292.1l.5.8a5.3,5.3,0,0,0,2.3,2.4l.9.5-.9.5a5.1,5.1,0,0,0-2.3,2.3l-.5.9-.5-.9a5.1,5.1,0,0,0-2.3-2.3l-.9-.5.9-.5a5.3,5.3,0,0,0,2.3-2.4Z"/><path class="cls-12" d="M434.2,275.7l.3.4a2.5,2.5,0,0,0,1.1,1.2l.5.3-.5.2a2.5,2.5,0,0,0-1.1,1.2l-.3.4-.2-.4a3.4,3.4,0,0,0-1.2-1.2l-.4-.2.4-.3a3.4,3.4,0,0,0,1.2-1.2Z"/><path class="cls-12" d="M513.3,202l.4.6a4.2,4.2,0,0,0,1.8,1.7l.7.3-.7.3a4.2,4.2,0,0,0-1.8,1.7l-.4.6-.4-.6a3.5,3.5,0,0,0-1.8-1.6l-.7-.4.7-.3a4.2,4.2,0,0,0,1.8-1.7Z"/><path class="cls-12" d="M164.4,297.3l.3.6a4.6,4.6,0,0,0,1.7,1.7l.7.4-.7.3a4.6,4.6,0,0,0-1.7,1.7l-.3.7-.4-.7a4.6,4.6,0,0,0-1.7-1.7l-.6-.3.6-.4a4.6,4.6,0,0,0,1.7-1.7Z"/><path class="cls-12" d="M411.4,233.7l.4.7a4.6,4.6,0,0,0,1.7,1.7l.6.3-.6.4a4,4,0,0,0-1.7,1.7l-.4.6-.3-.6a4,4,0,0,0-1.7-1.7l-.7-.4.7-.3a4.6,4.6,0,0,0,1.7-1.7Z"/><path class="cls-12" d="M349.1,92.1l.3.7a4.6,4.6,0,0,0,1.7,1.7l.7.3-.7.4a4.6,4.6,0,0,0-1.7,1.7l-.3.6-.4-.6a4,4,0,0,0-1.7-1.7l-.6-.4.6-.3a4,4,0,0,0,1.7-1.7Z"/><path class="cls-12" d="M404.5,117.9l.2.4a3.4,3.4,0,0,0,1.2,1.2l.4.2-.4.3a2.5,2.5,0,0,0-1.2,1.1l-.2.5-.3-.5A2.2,2.2,0,0,0,403,120l-.4-.3.4-.2a2.8,2.8,0,0,0,1.2-1.2Z"/><polygon class="cls-12" points="296.7 102.3 298.9 106.6 303.7 107.3 300.2 110.7 301 115.5 296.7 113.2 292.4 115.5 293.3 110.7 289.8 107.3 294.6 106.6 296.7 102.3"/><polygon class="cls-12" points="210.3 200.7 212.1 204.4 216.2 205 213.2 207.8 213.9 211.9 210.3 210 206.7 211.9 207.4 207.8 204.5 205 208.5 204.4 210.3 200.7"/><polygon class="cls-12" points="233.2 260.7 235 264.4 239.1 265 236.1 267.8 236.8 271.8 233.2 269.9 229.6 271.8 230.3 267.8 227.3 265 231.4 264.4 233.2 260.7"/><polygon class="cls-12" points="153.4 293.1 155.2 296.7 159.2 297.3 156.3 300.2 157 304.2 153.4 302.3 149.8 304.2 150.4 300.2 147.5 297.3 151.6 296.7 153.4 293.1"/><polygon class="cls-12" points="442.7 297.6 444.5 301.3 448.6 301.9 445.6 304.7 446.3 308.8 442.7 306.9 439.1 308.8 439.8 304.7 436.8 301.9 440.9 301.3 442.7 297.6"/><polygon class="cls-12" points="565.5 243 567 246 570.3 246.5 567.9 248.8 568.5 252.1 565.5 250.5 562.6 252.1 563.2 248.8 560.8 246.5 564.1 246 565.5 243"/><polygon class="cls-12" points="426 188.1 427.4 191.1 430.7 191.5 428.3 193.8 428.9 197.1 426 195.6 423 197.1 423.6 193.8 421.2 191.5 424.5 191.1 426 188.1"/><path class="cls-13" d="M103.9,379.4c-8.6-5.3-20.8-10.1-30.4-9.8a64.9,64.9,0,0,0,30.4,9.8"/><path class="cls-13" d="M109.8,388.9c-9.2-4.7-21.9-8.6-31.5-7.5a64.4,64.4,0,0,0,31.5,7.5"/><path class="cls-13" d="M117.2,399.2c-8.8-4.5-21.1-8.3-30.3-7.3a61.9,61.9,0,0,0,30.3,7.3"/><path class="cls-13" d="M90.1,349.2c-7.6-6.7-18.8-13.5-28.2-14.9a63.2,63.2,0,0,0,28.2,14.9"/><path class="cls-13" d="M94.2,359.7c-8.2-6.3-20-12.4-29.7-13a65.4,65.4,0,0,0,29.7,13"/><path class="cls-13" d="M99.6,371.1c-7.9-6-19.2-11.9-28.5-12.5a62.8,62.8,0,0,0,28.5,12.5"/><path class="cls-14" d="M104,379.2c1.2-10,5-22.6,11.1-29.9A63.9,63.9,0,0,1,104,379.2"/><path class="cls-14" d="M116.7,399.3c.2-10.1,2.6-23,8-30.9a65.5,65.5,0,0,1-8,30.9"/><path class="cls-14" d="M89.7,349.5c-.6-10.1.9-23.1,5.7-31.4a65.6,65.6,0,0,1-5.7,31.4"/><path class="cls-14" d="M94.1,359.9c.2-10.3,2.6-23.4,8.1-31.3a64.3,64.3,0,0,1-8.1,31.3"/><path class="cls-14" d="M99.6,371.1c.2-9.9,2.5-22.5,7.8-30.2a62.3,62.3,0,0,1-7.8,30.2"/><path class="cls-14" d="M108.9,388.8c1.1-9.9,4.6-22.2,10.5-29.3a60.9,60.9,0,0,1-10.5,29.3"/><path class="cls-13" d="M126.4,408.4c-11-5.3-17.1-7.3-29-5.3,11.7,5.8,15.9,6.4,29,5.3"/><path class="cls-14" d="M126.8,408c-2.3-12-.6-19.8,3-29.4,2.1,13.1.7,17.4-3,29.4"/><path class="cls-15" d="M85.4,336.8s16.2,52.1,42,72.3"/><path class="cls-14" d="M87.8,343.9c-1.3-10-5.2-22.5-11.4-29.8a63.5,63.5,0,0,0,11.4,29.8"/><path class="cls-13" d="M66,389.7c-11.8-2-27.4-1.9-37.8,2.6A76.5,76.5,0,0,0,66,389.7"/><path class="cls-13" d="M76.6,397.7c-12.1-1.2-27.8,0-37.9,5.4a76.8,76.8,0,0,0,37.9-5.4"/><path class="cls-13" d="M89.3,405.8c-11.7-1.1-26.9,0-36.6,5.2a74.2,74.2,0,0,0,36.6-5.2"/><path class="cls-13" d="M37.6,362.5c-11.3-4-26.6-6.7-37.6-4.1a77,77,0,0,0,37.6,4.1"/><path class="cls-13" d="M46.7,372.3c-11.8-3.3-27.5-4.9-38.3-1.4a76.7,76.7,0,0,0,38.3,1.4"/><path class="cls-13" d="M57.7,382.5c-11.4-3.2-26.4-4.8-36.9-1.4a73.5,73.5,0,0,0,36.9,1.4"/><path class="cls-14" d="M66,389.5c-3-11.6-4.3-27-.7-37.8a75.7,75.7,0,0,1,.7,37.8"/><path class="cls-14" d="M88.8,406.2c-4.2-11.3-7.1-26.5-4.7-37.6a77.3,77.3,0,0,1,4.7,37.6"/><path class="cls-14" d="M37.3,363c-5-10.9-9-25.9-7.4-37.1A76.5,76.5,0,0,1,37.3,363"/><path class="cls-14" d="M46.7,372.6c-4.3-11.5-7.3-26.9-4.7-38.1a77.1,77.1,0,0,1,4.7,38.1"/><path class="cls-14" d="M57.6,382.5c-4.1-11-7-25.9-4.5-36.7a73.9,73.9,0,0,1,4.5,36.7"/><path class="cls-14" d="M75.6,398c-3.1-11.4-4.6-26.5-1.2-37a72.7,72.7,0,0,1,1.2,37"/><path class="cls-13" d="M103.4,411.9c-14.5-1-22-.6-34.3,6.8,15.4,1.3,20.4.1,34.3-6.8"/><path class="cls-14" d="M103.7,411.4c-7.8-12.2-9.3-21.6-9.5-33.8,8.1,13.6,8.4,18.9,9.5,33.8"/><path class="cls-16" d="M27,350.8s40.6,50.4,77.8,61.5"/><path class="cls-14" d="M32.7,357.7c-5.8-10.5-15.5-22.6-25.4-27.9a76.8,76.8,0,0,0,25.4,27.9"/><path class="cls-13" d="M585.6,379.4c8.6-5.3,20.8-10.1,30.4-9.8a64.9,64.9,0,0,1-30.4,9.8"/><path class="cls-13" d="M579.7,388.9c9.2-4.7,21.8-8.6,31.4-7.5a63.8,63.8,0,0,1-31.4,7.5"/><path class="cls-13" d="M572.3,399.2c8.8-4.5,21-8.3,30.3-7.3a61.9,61.9,0,0,1-30.3,7.3"/><path class="cls-13" d="M599.4,349.2c7.6-6.7,18.8-13.5,28.2-14.9a63.2,63.2,0,0,1-28.2,14.9"/><path class="cls-13" d="M595.3,359.7c8.2-6.3,20-12.4,29.7-13a65.4,65.4,0,0,1-29.7,13"/><path class="cls-13" d="M589.8,371.1c7.9-6,19.3-11.9,28.6-12.5a62.7,62.7,0,0,1-28.6,12.5"/><path class="cls-14" d="M585.5,379.2c-1.3-10-5-22.6-11.2-29.9a65.1,65.1,0,0,0,11.2,29.9"/><path class="cls-14" d="M572.8,399.3c-.2-10.1-2.7-23-8-30.9a64.3,64.3,0,0,0,8,30.9"/><path class="cls-14" d="M599.8,349.5c.5-10.1-1-23.1-5.7-31.4a64.5,64.5,0,0,0,5.7,31.4"/><path class="cls-14" d="M595.4,359.9c-.2-10.3-2.6-23.4-8.1-31.3a64.3,64.3,0,0,0,8.1,31.3"/><path class="cls-14" d="M589.9,371.1c-.2-9.9-2.5-22.5-7.8-30.2a62.3,62.3,0,0,0,7.8,30.2"/><path class="cls-14" d="M580.5,388.8c-1-9.9-4.5-22.2-10.5-29.3a63.1,63.1,0,0,0,10.5,29.3"/><path class="cls-13" d="M563.1,408.4c11-5.3,17.1-7.3,29-5.3-11.7,5.8-16,6.4-29,5.3"/><path class="cls-14" d="M562.7,408c2.3-12,.6-19.8-3-29.4-2.2,13.1-.7,17.4,3,29.4"/><path class="cls-15" d="M604.1,336.8s-16.2,52.1-42,72.3"/><path class="cls-14" d="M601.7,343.9c1.3-10,5.2-22.5,11.4-29.8a64.5,64.5,0,0,1-11.4,29.8"/><path class="cls-13" d="M623.5,389.7c11.8-2,27.3-1.9,37.7,2.6a76.2,76.2,0,0,1-37.7-2.6"/><path class="cls-13" d="M612.8,397.7c12.2-1.2,27.9,0,38,5.4a77.4,77.4,0,0,1-38-5.4"/><path class="cls-13" d="M600.2,405.8c11.7-1.1,26.9,0,36.6,5.2a74.2,74.2,0,0,1-36.6-5.2"/><path class="cls-13" d="M651.9,362.5c11.3-4,26.6-6.7,37.6-4.1a77,77,0,0,1-37.6,4.1"/><path class="cls-13" d="M642.8,372.3c11.8-3.3,27.4-4.9,38.3-1.4a76.7,76.7,0,0,1-38.3,1.4"/><path class="cls-13" d="M631.8,382.5c11.3-3.2,26.4-4.8,36.9-1.4a73.5,73.5,0,0,1-36.9,1.4"/><path class="cls-14" d="M623.5,389.5c3-11.6,4.3-27,.7-37.8a75.7,75.7,0,0,0-.7,37.8"/><path class="cls-14" d="M600.7,406.2c4.2-11.3,7.1-26.5,4.7-37.6a76.1,76.1,0,0,0-4.7,37.6"/><path class="cls-14" d="M652.2,363c5-10.9,9-25.9,7.4-37.1a75.4,75.4,0,0,0-7.4,37.1"/><path class="cls-14" d="M642.8,372.6c4.3-11.5,7.3-26.9,4.7-38.1a75.9,75.9,0,0,0-4.7,38.1"/><path class="cls-14" d="M631.8,382.5c4.2-11,7.1-25.9,4.6-36.7a75.1,75.1,0,0,0-4.6,36.7"/><path class="cls-14" d="M613.8,398c3.2-11.4,4.7-26.5,1.3-37a73.9,73.9,0,0,0-1.3,37"/><path class="cls-13" d="M586.1,411.9c14.5-1,22-.6,34.3,6.8-15.4,1.3-20.4.1-34.3-6.8"/><path class="cls-14" d="M585.8,411.4c7.8-12.2,9.3-21.6,9.5-33.8-8.1,13.6-8.4,18.9-9.5,33.8"/><path class="cls-16" d="M662.4,350.8s-40.5,50.4-77.7,61.5"/><path class="cls-14" d="M656.7,357.7c5.8-10.5,15.5-22.6,25.5-27.9a76.2,76.2,0,0,1-25.5,27.9"/><rect class="cls-17" x="143.5" y="190" width="42.1" height="47.56"/><path class="cls-5" d="M157.2,233.8s.2-14.9,0-29.4c-.1-11,3.1-1.9,7.4-11.1,4.3,9.2,7.5.1,7.4,11.1-.2,14.5,0,29.4,0,29.4Z"/><rect class="cls-18" x="143.5" y="190" width="9.9" height="47.56"/><rect class="cls-18" x="175.8" y="190" width="9.9" height="47.56"/><path class="cls-19" d="M177.8,233.8V204.4c-.1-11,1.2-1.9,2.9-11.1,1.7,9.2,3,.1,3,11.1-.1,14.5,0,29.4,0,29.4Z"/><path class="cls-19" d="M145.5,233.8s.1-14.9,0-29.4c0-11,1.3-1.9,3-11.1,1.7,9.2,3,.1,2.9,11.1-.1,14.5,0,29.4,0,29.4Z"/><rect class="cls-20" x="163.1" y="103.2" width="1.2" height="62.75"/><path class="cls-5" d="M179.7,242.7c0,10.8-12.3,4.6-16,14.2-3.7-9.6-16.1-3.4-16.1-14.2Z"/><path class="cls-5" d="M142.6,183.6c0-14.3,16.2-6,21.1-18.7,4.9,12.7,21.1,4.4,21.1,18.7Z"/><path class="cls-6" d="M162.3,257.3a1.4,1.4,0,1,0,1.4-1.4A1.4,1.4,0,0,0,162.3,257.3Z"/><circle class="cls-6" cx="163.7" cy="164.2" r="3.1"/><rect class="cls-21" x="136.9" y="182.6" width="54.2" height="8.33" rx="4.2"/><path class="cls-22" d="M153.4,182.6H141.1a4.2,4.2,0,0,0,0,8.4h12.3Z"/><path class="cls-22" d="M186.9,182.6H175.8V191h11.1a4.2,4.2,0,0,0,0-8.4Z"/><path class="cls-21" d="M186.9,244.7H141.1a4.2,4.2,0,0,1-4.2-4.2h0a4.1,4.1,0,0,1,4.2-4.1h45.8a4.1,4.1,0,0,1,4.2,4.1h0A4.2,4.2,0,0,1,186.9,244.7Z"/><path class="cls-22" d="M153.4,236.4H141.1a4.1,4.1,0,0,0-4.2,4.1,4.2,4.2,0,0,0,4.2,4.2h12.3Z"/><path class="cls-22" d="M186.9,236.4H175.8v8.3h11.1a4.2,4.2,0,0,0,4.2-4.2A4.1,4.1,0,0,0,186.9,236.4Z"/><rect class="cls-17" x="467.2" y="233.1" width="32" height="36.17"/><path class="cls-5" d="M477.6,266.4s.1-11.4,0-22.4c-.1-8.4,2.3-1.4,5.6-8.5,3.3,7.1,5.7.1,5.6,8.5-.1,11,0,22.4,0,22.4Z"/><rect class="cls-18" x="467.2" y="233.1" width="7.5" height="36.17"/><rect class="cls-18" x="491.7" y="233.1" width="7.5" height="36.17"/><path class="cls-19" d="M493.2,266.4s.1-11.4,0-22.4c0-8.4,1-1.4,2.3-8.5,1.2,7.1,2.2.1,2.2,8.5-.1,11,0,22.4,0,22.4Z"/><path class="cls-19" d="M468.7,266.4V244c0-8.4.9-1.4,2.2-8.5,1.3,7.1,2.3.1,2.3,8.5-.1,11,0,22.4,0,22.4Z"/><rect class="cls-20" x="482.1" y="167.1" width="0.9" height="47.72"/><path class="cls-5" d="M494.7,273.1c0,8.3-9.4,3.5-12.2,10.8-2.8-7.3-12.2-2.5-12.2-10.8Z"/><path class="cls-5" d="M466.5,228.2c0-10.9,12.3-4.6,16-14.2,3.7,9.6,16,3.3,16,14.2Z"/><path class="cls-6" d="M481.4,284.2a1.1,1.1,0,1,0,2.2,0,1.1,1.1,0,0,0-2.2,0Z"/><path class="cls-6" d="M480.1,213.4a2.4,2.4,0,1,0,2.4-2.4A2.4,2.4,0,0,0,480.1,213.4Z"/><path class="cls-21" d="M500.2,233.8H465.3a3.2,3.2,0,0,1-3.2-3.2h0a3.2,3.2,0,0,1,3.2-3.1h34.9a3.2,3.2,0,0,1,3.2,3.1h0A3.2,3.2,0,0,1,500.2,233.8Z"/><path class="cls-22" d="M474.7,227.5h-9.4a3.2,3.2,0,1,0,0,6.3h9.4Z"/><path class="cls-22" d="M500.2,227.5h-8.5v6.3h8.5a3.2,3.2,0,1,0,0-6.3Z"/><path class="cls-21" d="M500.2,274.7H465.3a3.3,3.3,0,0,1-3.2-3.2h0a3.2,3.2,0,0,1,3.2-3.2h34.9a3.2,3.2,0,0,1,3.2,3.2h0A3.3,3.3,0,0,1,500.2,274.7Z"/><path class="cls-22" d="M474.7,268.3h-9.4a3.2,3.2,0,0,0-3.2,3.2,3.3,3.3,0,0,0,3.2,3.2h9.4Z"/><path class="cls-22" d="M500.2,268.3h-8.5v6.4h8.5a3.3,3.3,0,0,0,3.2-3.2A3.2,3.2,0,0,0,500.2,268.3Z"/><rect class="cls-17" x="511" y="229.7" width="25.9" height="29.29"/><path class="cls-5" d="M519.4,256.6s.1-9.2,0-18.1c-.1-6.8,1.9-1.2,4.5-6.9,2.7,5.7,4.7.1,4.6,6.9-.1,8.9,0,18.1,0,18.1Z"/><rect class="cls-18" x="511" y="229.7" width="6.1" height="29.29"/><rect class="cls-18" x="530.8" y="229.7" width="6.1" height="29.29"/><path class="cls-19" d="M532.1,256.6V238.5c-.1-6.8.7-1.2,1.8-6.9,1,5.7,1.8.1,1.8,6.9-.1,8.9,0,18.1,0,18.1Z"/><path class="cls-19" d="M512.2,256.6V238.5c0-6.8.8-1.2,1.8-6.9,1.1,5.7,1.9.1,1.8,6.9v18.1Z"/><rect class="cls-20" x="523" y="176.2" width="0.7" height="38.65"/><path class="cls-5" d="M533.3,262.1c0,6.7-7.6,2.8-9.9,8.7-2.3-5.9-9.9-2-9.9-8.7Z"/><path class="cls-5" d="M510.4,225.7c0-8.8,10-3.7,13-11.5,3,7.8,13,2.7,13,11.5Z"/><path class="cls-6" d="M522.5,271.1a.9.9,0,1,0,.9-.9A.9.9,0,0,0,522.5,271.1Z"/><path class="cls-6" d="M521.5,213.7a1.9,1.9,0,1,0,1.9-1.9A1.8,1.8,0,0,0,521.5,213.7Z"/><path class="cls-21" d="M537.7,230.2H509.5a2.5,2.5,0,0,1-2.6-2.5h0a2.5,2.5,0,0,1,2.6-2.6h28.2a2.6,2.6,0,0,1,2.6,2.6h0A2.6,2.6,0,0,1,537.7,230.2Z"/><path class="cls-22" d="M517.1,225.1h-7.6a2.6,2.6,0,1,0,0,5.1h7.6Z"/><path class="cls-22" d="M537.7,225.1h-6.9v5.1h6.9a2.6,2.6,0,1,0,0-5.1Z"/><path class="cls-21" d="M537.7,263.3H509.5a2.5,2.5,0,0,1-2.6-2.5h0a2.5,2.5,0,0,1,2.6-2.6h28.2a2.6,2.6,0,0,1,2.6,2.6h0A2.6,2.6,0,0,1,537.7,263.3Z"/><path class="cls-22" d="M517.1,258.2h-7.6a2.6,2.6,0,1,0,0,5.1h7.6Z"/><path class="cls-22" d="M537.7,258.2h-6.9v5.1h6.9a2.6,2.6,0,1,0,0-5.1Z"/><path class="cls-17" d="M431.8,309.8c-9.7-21-27-27.7-40.8-34.1s-18.1-15-18.1-15-63.5.4-63.9,0-4.4,8.7-18.2,15-31,13.1-40.8,34.1S243.4,411,243.4,411H438.5S441.6,330.7,431.8,309.8Z"/><path class="cls-21" d="M302.5,312.8a132.5,132.5,0,0,0,15.1,3.6l3.5.5,1.1.2,8.2.6c5,.3,10,.3,14.9.2s10.5-.6,15.8-1.3l2.1-.2,3.4-.6,7.3-1.3,6-1.2c9.9-21.2,16.1-50.4,16.1-82.8,0-64.6-15.6-116.9-55.1-116.9s-55.1,52.3-55.1,116.9c0,32,6.1,60.9,15.9,82Z"/><path class="cls-21" d="M340.9,323.3c32.7,0,60.9-14.2,73.8-34.8-7.8-5.8-16.2-9.3-23.7-12.8-13.7-6.3-18.1-15-18.1-15s-63.5.4-63.9,0-4.4,8.7-18.2,15c-7.4,3.5-15.8,7-23.6,12.8C280.1,309.1,308.2,323.3,340.9,323.3Z"/><rect class="cls-22" x="298.7" y="127.5" width="84.6" height="126.53" rx="40.6"/><rect class="cls-23" x="303.6" y="134.9" width="74.7" height="111.77" rx="35.8"/><path class="cls-12" d="M342.4,134.9h-3a36,36,0,0,0-35.8,35.9v22.7a35.9,35.9,0,0,1,35.8-35.8h3a35.9,35.9,0,0,1,35.9,35.8V170.8A36,36,0,0,0,342.4,134.9Z"/><path class="cls-24" d="M342.8,219.5h-6.9a1.5,1.5,0,0,1-1.5-1.4,1.5,1.5,0,0,1,1.5-1.5h5.4V197.4a1.5,1.5,0,0,1,1.5-1.4,1.4,1.4,0,0,1,1.4,1.4v20.7A1.4,1.4,0,0,1,342.8,219.5Z"/><path class="cls-24" d="M341,231a27.2,27.2,0,0,1-11.1-2.6,1.5,1.5,0,0,1,1.4-2.6c.1.1,10.4,5.3,18.6-.4a1.4,1.4,0,0,1,2,.3,1.6,1.6,0,0,1-.3,2.1A18.4,18.4,0,0,1,341,231Z"/><path class="cls-24" d="M313.8,189.9a1.3,1.3,0,0,1-1-.4,1.5,1.5,0,0,1-.1-2.1c.1,0,7.9-8.2,17.8-1.2a1.5,1.5,0,0,1,.4,2,1.6,1.6,0,0,1-2.1.4c-7.8-5.6-13.7.6-13.9.8A1.6,1.6,0,0,1,313.8,189.9Z"/><path class="cls-24" d="M352.2,189.9a1.3,1.3,0,0,1-1-.4,1.5,1.5,0,0,1-.1-2.1c.1,0,7.9-8.2,17.8-1.2a1.5,1.5,0,0,1,.4,2,1.6,1.6,0,0,1-2.1.4c-7.8-5.6-13.7.6-13.9.8A1.6,1.6,0,0,1,352.2,189.9Z"/><path class="cls-25" d="M320.8,221h0a8.7,8.7,0,0,1-8.7-8.7v-.7a8.8,8.8,0,0,1,8.7-8.8h0a8.8,8.8,0,0,1,8.7,8.8v.7A8.7,8.7,0,0,1,320.8,221Z"/><rect class="cls-25" x="352.2" y="202.8" width="17.4" height="18.17" rx="8.7"/><g class="cls-26"><path class="cls-27" d="M309.7,188a273.1,273.1,0,0,1,3-41,35.4,35.4,0,0,0-9.1,23.8v40.1a35.8,35.8,0,0,0,10.2,25A269,269,0,0,1,309.7,188Z"/><path class="cls-27" d="M369.6,147.5a268.7,268.7,0,0,1,2.9,40.5,263.7,263.7,0,0,1-4,47.4,35.7,35.7,0,0,0,9.8-24.5V170.8A35.7,35.7,0,0,0,369.6,147.5Z"/></g><path class="cls-28" d="M312.7,147a35.4,35.4,0,0,0-9.1,23.8v22.7a35.5,35.5,0,0,1,6.5-20.5C310.6,163.8,311.5,155.1,312.7,147Z"/><path class="cls-28" d="M369.6,147.5a256.2,256.2,0,0,1,2.6,26.1,36,36,0,0,1,6.1,19.9V170.8A35.7,35.7,0,0,0,369.6,147.5Z"/><path class="cls-29" d="M322.3,206.2a7.1,7.1,0,0,1-7.1-7.1,1.5,1.5,0,0,1,1.5-1.4,1.4,1.4,0,0,1,1.4,1.4,4.2,4.2,0,1,0,8.3,0,1.5,1.5,0,0,1,1.5-1.4,1.4,1.4,0,0,1,1.4,1.4A7,7,0,0,1,322.3,206.2Z"/><path class="cls-29" d="M358,206.2a7,7,0,0,1-7-7.1,1.4,1.4,0,0,1,1.4-1.4,1.5,1.5,0,0,1,1.5,1.4,4.1,4.1,0,0,0,4.1,4.2,4.2,4.2,0,0,0,4.2-4.2,1.4,1.4,0,0,1,1.4-1.4,1.5,1.5,0,0,1,1.5,1.4A7.1,7.1,0,0,1,358,206.2Z"/><path class="cls-22" d="M302.8,279.4c25.1,2.1,49.3-8,69.8-21.7,5.7-3.9,11.3-8,16.7-12.3,1-.8-.4-2.2-1.4-1.4-19,15-40.2,28.4-64.4,32.5a84.4,84.4,0,0,1-20.7.9c-1.3-.1-1.3,1.9,0,2Z"/><path class="cls-22" d="M326.2,277.5c18.6,8,37.5,16.1,57.9,17.5a88.4,88.4,0,0,0,17.1-.7c1.3-.2.8-2.1-.5-2-19.8,3-39.6-2.7-57.9-10-5.2-2-10.4-4.3-15.6-6.5-1.1-.5-2.2,1.2-1,1.7Z"/><path class="cls-22" d="M288.5,294.9a132.9,132.9,0,0,0,64,19.3,137,137,0,0,0,19.2-.7c1.3-.2,1.3-2.2,0-2a132,132,0,0,1-65.4-9.6,133.6,133.6,0,0,1-16.8-8.7c-1.1-.7-2.1,1-1,1.7Z"/><polygon class="cls-18" points="393.7 337.9 439 409.7 384 409.7 363.6 347.2 393.7 337.9"/><path class="cls-18" d="M399.9,350.8a.9.9,0,0,0,1-1V332.5a1,1,0,0,0-1-1,1.1,1.1,0,0,0-1,1v17.3A1,1,0,0,0,399.9,350.8Z"/><path class="cls-30" d="M393.5,337.4s-.2,9.8-11.7,12.9-18.2-3.1-18.2-3.1Z"/><path class="cls-23" d="M389.3,341.9s-2.3-4.5-2.5-7.4,3.8-8.8,3-13.4-6.9-16.9-6.9-16.9-3.9.5-3.8,3.9,1.2,12.4,1.2,12.4l-18.6-35.6s-4,.9-2.9,6.5c-.5-.5-2.7-4.4-2.7-4.4s-4.6,1-2.9,6.7c-.6-.3-2.9-4.2-2.9-4.2s-4.6.8-2.3,6.6a20.3,20.3,0,0,0,2.2,5.3s-3.2.6-2.8,3.7,9.4,25.9,12.3,28.7,9.5,6.5,9.5,6.5l3.2,8.2A19.1,19.1,0,0,0,389.3,341.9Z"/><path class="cls-24" d="M366.9,309.3h.2a.4.4,0,0,0,.2-.6l-8.1-17.4a.4.4,0,0,0-.8.4l8.1,17.4C366.6,309.2,366.7,309.3,366.9,309.3Z"/><path class="cls-24" d="M361.4,311.3h.2a.5.5,0,0,0,.2-.6l-8.3-17.5a.5.5,0,0,0-.6-.2c-.3.1-.3.3-.2.6l8.2,17.5A.5.5,0,0,0,361.4,311.3Z"/><path class="cls-24" d="M355.9,313.6h.2a.5.5,0,0,0,.2-.6l-5.6-11.9a.4.4,0,0,0-.8.4l5.6,11.9A.5.5,0,0,0,355.9,313.6Z"/><polygon class="cls-18" points="289.1 337.9 243.9 409.7 298.8 409.7 319.2 347.2 289.1 337.9"/><path class="cls-18" d="M282.9,350.8a.9.9,0,0,1-1-1V332.5a1,1,0,0,1,1-1,1.1,1.1,0,0,1,1,1v17.3A1,1,0,0,1,282.9,350.8Z"/><path class="cls-30" d="M289.3,337.4s.2,9.8,11.8,12.9,18.1-3.1,18.1-3.1Z"/><path class="cls-23" d="M293.5,341.9s2.3-4.5,2.5-7.4-3.8-8.8-3-13.4,6.9-16.9,6.9-16.9,3.9.5,3.8,3.9-1.2,12.4-1.2,12.4l18.6-35.6s4,.9,2.9,6.5a35.2,35.2,0,0,0,2.7-4.4s4.6,1,2.9,6.7c.6-.3,2.9-4.2,2.9-4.2s4.6.8,2.3,6.6a22.6,22.6,0,0,1-2.1,5.3,3.3,3.3,0,0,1,2.7,3.7c-.4,3.1-9.4,25.9-12.3,28.7s-9.5,6.5-9.5,6.5l-3.2,8.2A19.1,19.1,0,0,1,293.5,341.9Z"/><path class="cls-24" d="M315.9,309.3h-.2a.4.4,0,0,1-.2-.6l8.1-17.4a.4.4,0,1,1,.8.4L316.3,309C316.2,309.2,316.1,309.3,315.9,309.3Z"/><path class="cls-24" d="M321.5,311.3c-.1,0-.2,0-.2-.1a.4.4,0,0,1-.3-.6l8.3-17.5a.5.5,0,0,1,.6-.2.4.4,0,0,1,.3.6L321.9,311A.5.5,0,0,1,321.5,311.3Z"/><path class="cls-24" d="M326.9,313.6h-.2a.5.5,0,0,1-.2-.6l5.6-11.9a.5.5,0,0,1,.6-.2c.3.1.4.4.2.6l-5.6,11.9A.5.5,0,0,1,326.9,313.6Z"/><path class="cls-3" d="M655.7,421.2H51.1a5.4,5.4,0,0,1-5.3-5.4h0a5.3,5.3,0,0,1,5.3-5.3H655.7a5.4,5.4,0,0,1,5.4,5.3h0A5.4,5.4,0,0,1,655.7,421.2Z"/><path class="cls-5" d="M504.6,155.2a54.5,54.5,0,0,1-37-67.3,55,55,0,0,1,12.5-22,.9.9,0,0,0-.9-1.6,62.1,62.1,0,1,0,74.2,83,.7.7,0,0,0-1-.8A54.1,54.1,0,0,1,504.6,155.2Z"/><path class="cls-31" d="M457.5,84a76.8,76.8,0,0,1,22.6-18.1h0a.9.9,0,0,0-.9-1.6,61.8,61.8,0,0,0-43.3,43.4,61,61,0,0,0,.7,35.2A86.5,86.5,0,0,1,457.5,84Z"/><path class="cls-32" d="M552.4,146.5c-48.4,50.1-97.6,20.2-112.7,4.4a62.1,62.1,0,0,0,113.7-3.6C553.7,146.7,552.9,146,552.4,146.5Z"/><path class="cls-33" d="M115.5,274.9a14.4,14.4,0,0,0-26,1.9,10.6,10.6,0,0,0-15.7,8.9h65.4a6.6,6.6,0,0,0-6.3-3.7c-2.5,0-2.1.9-2.1-.3A9.2,9.2,0,0,0,115.5,274.9Z"/><path class="cls-34" d="M272.7,124.2c-3.2,0-2.6,1.1-2.6-.4,0-10.1-12.1-15.4-19.6-8.7-7.7-13.5-27.6-12.1-33.2,2.4a13.6,13.6,0,0,0-19.8,14.8h84.3A8.6,8.6,0,0,0,272.7,124.2Z"/><path class="cls-35" d="M617.9,284.9a6.6,6.6,0,0,0-5.9-3.8,6.5,6.5,0,0,0-3.9,1.2,9.1,9.1,0,0,0-8.8-6.6,9.3,9.3,0,0,0-5.5,1.8,12.2,12.2,0,0,0-11.5-8A12.4,12.4,0,0,0,570,281.2h-1.1a6.6,6.6,0,0,0-6,3.8Z"/></g></g></g></svg>