<svg id="Component_4_1" data-name="Component 4 – 1" xmlns="http://www.w3.org/2000/svg" width="495.484" height="349.612" viewBox="0 0 495.484 349.612">
  <g id="Group_838" data-name="Group 838" transform="translate(-186.516 -2148)">
    <g id="Group_836" data-name="Group 836">
      <g id="Group_829" data-name="Group 829">
        <path id="Path_497" data-name="Path 497" d="M673.436,2455.774l-473.378,1.8L186.516,2148H682Z" fill="#a467b4"/>
        <path id="Path_498" data-name="Path 498" d="M614.683,2169.649H252.615c.891,20.2-11.279,41.032-36.509,42.333l8.218,181.926c.368-.009.713-.054,1.086-.054,26.708,0,39.686,21.234,39.006,41.929l343.566-1.263c-.871-20.826,12.1-42.349,38.989-42.349.329,0,.631.041.956.047l5.2-180.983C626.953,2210.925,614.149,2190.09,614.683,2169.649Z" fill="#fbf9f4"/>
        <g id="Group_828" data-name="Group 828">
          <path id="Path_499" data-name="Path 499" d="M366.039,2156.21H199.6l6.106,139.584C224.331,2280.3,332.454,2188.548,366.039,2156.21Z" fill="#b7e7ff" opacity="0.55" style="mix-blend-mode: screen;isolation: isolate"/>
          <path id="Path_500" data-name="Path 500" d="M667.01,2156.21h-52.6c-68.722,106.4-157.248,197.315-240.331,292.54l117.211-.446C499.105,2435.853,667.01,2156.21,667.01,2156.21Z" fill="#b7e7ff" opacity="0.55" style="mix-blend-mode: screen;isolation: isolate"/>
          <path id="Path_501" data-name="Path 501" d="M581.854,2447.961l78.847-.3,3.447-123.869C637.124,2365.593,608.158,2406.32,581.854,2447.961Z" fill="#b7e7ff" opacity="0.55" style="mix-blend-mode: screen;isolation: isolate"/>
          <path id="Path_502" data-name="Path 502" d="M274.6,2449.127c82.166-98.01,173.432-188.875,247.5-292.917H470.384c-14.373,16.813-225.4,205.651-260.493,235.175l2.537,57.978Z" fill="#b7e7ff" opacity="0.55" style="mix-blend-mode: screen;isolation: isolate"/>
        </g>
      </g>
      <g id="Group_830" data-name="Group 830">
        <path id="Path_503" data-name="Path 503" d="M369.311,2281.632c4.047,0,7.954-2.954,10.954-8.955l.256-.488.954.721-.256.488c-3.419,6.861-8.373,10.466-13.559,10.466-6.675,0-13.35-5.721-13.35-17.676,0-15.7,8.582-22.559,14.908-22.559,5.535,0,9.489,3.907,9.489,9.954,0,5.744-3.814,10.512-7.954,10.512a4.939,4.939,0,0,1-5-5.233,8.812,8.812,0,0,1,3.652-6.814l.628.628a8.908,8.908,0,0,0-2.372,5.954c0,2.651,1.419,4.279,3.093,4.279,2.326,0,4.768-3.465,4.768-9.768,0-5.721-2.722-8.326-6.21-8.326-3.7,0-11.187,4.465-11.187,20.187C358.124,2276.143,363.659,2281.632,369.311,2281.632Z" fill="#232323"/>
        <path id="Path_504" data-name="Path 504" d="M394.476,2272.677l.232-.488.954.721-.233.488c-3.326,6.652-6.674,9.28-9.536,9.28-4.046,0-6.372-3.628-6.372-7.861,0-6.675,4-11.187,8.187-11.187,2.14,0,3.3,1.233,3.3,2.861,0,3.14-3.907,5.465-8.349,8.187.442,3.232,2.139,5.372,4.721,5.372C389.568,2280.05,391.848,2277.91,394.476,2272.677Zm-8.094-7.489c-1.628,0-3.814,2.21-3.814,7.769v.534c2.14-1.139,5.535-3.768,5.535-6.3A1.8,1.8,0,0,0,386.382,2265.188Z" fill="#232323"/>
        <path id="Path_505" data-name="Path 505" d="M394.476,2272.677l.232-.488a18.569,18.569,0,0,0,1.629-4.838,3.155,3.155,0,0,1-3.047-3.069,2.163,2.163,0,0,1,2.186-2.234c1.511,0,2.233,1.349,2.233,2.768,1.767,0,4.14-1.186,5.814-1.186.721,0,1.186.279,1.186.953,0,1.512-2.954,9.28-2.954,13.327,0,1.675.326,2.14,1.28,2.14.813,0,2.3-1.047,5.488-7.373l.233-.488.953.721-.232.488c-3.721,7.419-5.675,9.28-7.861,9.28-1.814,0-3.093-1.372-3.093-4.28,0-4.767,4.279-10.721,5-13.582l-.14-.139c-1,0-3.442,2.512-5.86,2.767a22.765,22.765,0,0,1-1.861,5.466l-.233.488Zm.651-8.861c0,.721.861,1.047,1.3,1.047,0-.861-.3-1.512-.814-1.512A.486.486,0,0,0,395.127,2263.816Z" fill="#232323"/>
        <path id="Path_506" data-name="Path 506" d="M409.337,2265.049h-2.116l.256-1.419h2.047c.418-3.14.906-6.349,1.278-9.536h2.373c-.14,1.349-.465,5.35-.7,9.536h4.512l-.232,1.419h-4.373c-.256,3.535-.395,6.954-.395,8.814,0,4.722.581,6.187,1.767,6.187,1.582,0,3.861-3.373,5.861-7.373l.233-.488.953.721-.232.488c-2.861,5.792-5.675,9.28-8.094,9.28-2.4,0-3.814-2.139-3.814-7.628A86.754,86.754,0,0,1,409.337,2265.049Z" fill="#232323"/>
        <path id="Path_507" data-name="Path 507" d="M421.036,2272.445l-.233.465-.232.488-.954-.721.233-.488c1.581-3.14,1.907-6.652,2.325-7.606.349-.721,1.582-.953,1.908-.953.674,0,.86.232.86.953,0,.7-.674,5.722-.674,11.141,0,3.907.814,4.233,1.535,4.233,1,0,2.372-1.512,5.279-7.28l.256-.488.954.721-.256.488c-2.326,4.6-4.7,9.28-7.14,9.28-2.512,0-3.675-1.861-3.675-7.582,0-.79,0-1.7.047-2.651Zm2.861-11.676a1.886,1.886,0,0,1-1.907-1.907,1.916,1.916,0,0,1,1.907-1.907,1.886,1.886,0,0,1,1.907,1.907A1.858,1.858,0,0,1,423.9,2260.769Z" fill="#232323"/>
        <path id="Path_508" data-name="Path 508" d="M441.294,2272.189l.953.721-.232.488a6.184,6.184,0,0,1-5.35,3.745,5.469,5.469,0,0,1-2.047-.419v17.63l-2.372.232s-.953-13.187-.953-28.351c0-11.908,2.814-18.327,5.954-18.327,1.186,0,2.139.721,2.139,2.86,0,5.327-2.767,13.281-4.768,18.374v5.21a3.227,3.227,0,0,0,2.442,1.093,4.306,4.306,0,0,0,4-2.768Zm-6.676-6.047a46.228,46.228,0,0,0,2.861-14.187c0-1.419-.232-2.373-1-2.373-1.372,0-1.861,5.954-1.861,13.095Z" fill="#232323"/>
        <path id="Path_509" data-name="Path 509" d="M442.48,2272.445l-.233.465-.232.488-.954-.721.233-.488c1.581-3.14,1.906-6.652,2.325-7.606.349-.721,1.582-.953,1.907-.953.675,0,.861.232.861.953,0,.7-.675,5.722-.675,11.141,0,3.907.814,4.233,1.535,4.233,1,0,2.373-1.512,5.28-7.28l.256-.488.953.721-.256.488c-2.325,4.6-4.7,9.28-7.14,9.28-2.511,0-3.674-1.861-3.674-7.582,0-.79,0-1.7.046-2.651Zm2.86-11.676a1.886,1.886,0,0,1-1.907-1.907,1.916,1.916,0,0,1,1.907-1.907,1.886,1.886,0,0,1,1.907,1.907A1.858,1.858,0,0,1,445.34,2260.769Z" fill="#232323"/>
        <path id="Path_510" data-name="Path 510" d="M461.318,2267c0-1.046-.442-1.953-1.814-1.953-1.768,0-4,2.581-4,7.908,0,4.186,1.814,7.093,4.814,7.093,2.186,0,4.466-2.14,7.094-7.373l.232-.488.954.721-.233.488c-3.349,6.652-6.674,9.28-9.536,9.28-4.046,0-6.372-3.628-6.372-7.861,0-6.675,4-11.187,7.7-11.187,2.861,0,3.768,1.814,3.768,3.094a3.808,3.808,0,0,1-3.047,3.325l-.232-.651A4.829,4.829,0,0,0,461.318,2267Z" fill="#232323"/>
        <path id="Path_511" data-name="Path 511" d="M482.785,2280.05c.907,0,2.14-1.7,4.489-6.419l.7-1.442.953.721-.7,1.442c-2.629,5.233-4.443,8.326-6.4,8.326-2.047,0-2.745-2.419-2.954-5.326-1.512,2.954-3.6,5.326-5.745,5.326-3.116,0-6.07-2.582-6.07-8.094,0-6.442,3.628-10.954,7.722-10.954,2.488,0,4.232,2.558,4.628,3.814l.279-2.256c.139-1.186,2.326-1.558,2.814-1.558.372,0,.465.093.465.465a82.266,82.266,0,0,0-1.232,12.815C481.739,2278.678,482.018,2280.05,482.785,2280.05Zm-7.651-15c-2.675,0-4.768,3.186-4.768,7.861,0,4.628,1.6,7.14,4,7.14,2.093,0,4.814-3.512,4.814-9.28C479.18,2267.909,477.32,2265.049,475.134,2265.049Z" fill="#232323"/>
        <path id="Path_512" data-name="Path 512" d="M488.553,2265.049h-2.117l.256-1.419h2.047c.419-3.14.907-6.349,1.279-9.536h2.373c-.14,1.349-.466,5.35-.7,9.536H496.2l-.233,1.419H491.6c-.256,3.535-.4,6.954-.4,8.814,0,4.722.582,6.187,1.768,6.187,1.582,0,3.861-3.373,5.861-7.373l.233-.488.953.721-.233.488c-2.86,5.792-5.674,9.28-8.093,9.28-2.4,0-3.814-2.139-3.814-7.628A86.536,86.536,0,0,1,488.553,2265.049Z" fill="#232323"/>
        <path id="Path_513" data-name="Path 513" d="M513.02,2272.677l.233-.488.953.721-.232.488c-3.326,6.652-6.675,9.28-9.536,9.28-4.047,0-6.373-3.628-6.373-7.861,0-6.675,4-11.187,8.187-11.187,2.14,0,3.3,1.233,3.3,2.861,0,3.14-3.908,5.465-8.35,8.187.442,3.232,2.14,5.372,4.722,5.372C508.113,2280.05,510.392,2277.91,513.02,2272.677Zm-8.094-7.489c-1.628,0-3.814,2.21-3.814,7.769v.534c2.14-1.139,5.536-3.768,5.536-6.3A1.8,1.8,0,0,0,504.926,2265.188Z" fill="#232323"/>
      </g>
      <g id="Group_832" data-name="Group 832">
        <g id="Group_831" data-name="Group 831">
          <path id="Path_514" data-name="Path 514" d="M457.44,2212.981l.033.015c.246.1.5.2.753.285a6.586,6.586,0,0,0,1.419.311,4.148,4.148,0,0,0,2.616-.579,5.5,5.5,0,0,0,2-2.43,7.432,7.432,0,0,0,.662-2.576,4.211,4.211,0,0,0-2.022-.679,4.036,4.036,0,0,0-2.76.859,8.756,8.756,0,0,0-2.273,2.872,29.73,29.73,0,0,0,.474-4.139,8.028,8.028,0,0,0,1.531.237,4.2,4.2,0,0,0,2.557-.621,4.435,4.435,0,0,0,1.7-2.484,6.674,6.674,0,0,0,.252-2.725,3.878,3.878,0,0,0-4,.468,7.106,7.106,0,0,0-2.014,3.534,32.279,32.279,0,0,0-.292-4.1l.108.01c.131.012.263.021.4.026a7.068,7.068,0,0,0,.73,0,4.146,4.146,0,0,0,2.337-.783,3.79,3.79,0,0,0,1.3-2.346,6.166,6.166,0,0,0-.133-2.741,3.652,3.652,0,0,0-3.343.638,5.536,5.536,0,0,0-1.558,3.526c-.017.117-.032.235-.045.352l0-.019a34.955,34.955,0,0,0-.913-3.847l.111,0q.2-.006.39-.021a4.574,4.574,0,0,0,2.374-.77,3.214,3.214,0,0,0,1.218-2.382,5.448,5.448,0,0,0-.108-1.506,4.979,4.979,0,0,0-.321-1.121,3.442,3.442,0,0,0-2.765.692,3.912,3.912,0,0,0-1.179,2.72,10.1,10.1,0,0,0-.025,1.413q-.6-1.852-1.39-3.651l.106-.013c.127-.017.254-.036.38-.059a6.216,6.216,0,0,0,.678-.162,3.951,3.951,0,0,0,1.087-.5c1.637-1.123,1.352-3.357.538-4.84a3.256,3.256,0,0,0-2.157.588,2.81,2.81,0,0,0-1.035,1.83,6.886,6.886,0,0,0,.09,2.456q-.663-1.449-1.428-2.857c-.093-.173-.193-.343-.288-.515.116-.023.232-.048.346-.076a4.871,4.871,0,0,0,1.264-.493,2.491,2.491,0,0,0,1.281-2.233,4.619,4.619,0,0,0-.785-2.431,2.674,2.674,0,0,0-2.485,1.459,4.274,4.274,0,0,0-.035,2.726c.053.209.112.416.174.623q-1.143-2-2.474-3.9c-.3-.427-.606-.847-.917-1.266h-.075c.815,1.153,1.577,2.341,2.29,3.543.775,1.307,1.5,2.648,2.139,4.016l-.1-.129a5.177,5.177,0,0,0-.545-.6,3.73,3.73,0,0,0-1.34-.824,2.4,2.4,0,0,0-2.5.759l-.02.023a3.529,3.529,0,0,0,1.877,1.679,3.17,3.17,0,0,0,2.694-.467l.108-.072q.3.656.574,1.318c.212.515.42,1.032.619,1.552-.105-.154-.213-.306-.329-.453a4.917,4.917,0,0,0-.874-.867,2.642,2.642,0,0,0-3.641.261,3.873,3.873,0,0,0,1.945,1.97,3.45,3.45,0,0,0,2.766-.205c.113-.053.223-.111.332-.17.119.325.235.653.343.982.23.7.429,1.4.617,2.112a6.238,6.238,0,0,0-.48-.733,3.593,3.593,0,0,0-2-1.42,3.126,3.126,0,0,0-2.635.731,4.291,4.291,0,0,0,1.54,2.067,3.411,3.411,0,0,0,2.575.478,5.114,5.114,0,0,0,.7-.184q.191-.066.378-.142l.114-.049c.027.106.055.212.082.319a27.576,27.576,0,0,1,.572,3.067c-.036-.083-.071-.167-.11-.25a4.767,4.767,0,0,0-1.372-1.793,2.921,2.921,0,0,0-2.16-.588,3.817,3.817,0,0,0-1.684.645,4.305,4.305,0,0,0,1.243,2.22,3.615,3.615,0,0,0,2.466.932,5.646,5.646,0,0,0,1.505-.214c.076-.02.149-.045.223-.068.1.88.165,1.763.191,2.647.01.319.013.638.012.957a5.17,5.17,0,0,0-1.243-2.256,3.58,3.58,0,0,0-4.164-.378,4.667,4.667,0,0,0,1.027,2.491,3.8,3.8,0,0,0,2.279,1.251,5.689,5.689,0,0,0,1.429.048c.217-.019.434-.05.649-.087a29.637,29.637,0,0,1-.376,3.721,5.311,5.311,0,0,0-.558-1.858,3.269,3.269,0,0,0-2.236-1.736,4.71,4.71,0,0,0-2.5.215,5.05,5.05,0,0,0,.529,2.474,3.89,3.89,0,0,0,2.08,1.807,5.584,5.584,0,0,0,1.264.312,7.273,7.273,0,0,0,.737.056q.2,0,.4,0H457a28.8,28.8,0,0,1-1.054,3.72,6.058,6.058,0,0,0-.07-1.2,3.579,3.579,0,0,0-1.531-2.537,4.755,4.755,0,0,0-3.367-.481,5.121,5.121,0,0,0,.065,2.511,4,4,0,0,0,1.625,2.187,6.459,6.459,0,0,0,2.722.949q-.15.357-.31.709a26.156,26.156,0,0,1-1.537,2.9,5.912,5.912,0,0,0,.126-.692,3.735,3.735,0,0,0-1.122-3.451,5.133,5.133,0,0,0-3.34-1,4.506,4.506,0,0,0,.83,5.157,6.474,6.474,0,0,0,2.229,1.354c.1.037.2.072.3.107a24.618,24.618,0,0,1-2.713,3.2c.039-.077.079-.154.116-.232a4.019,4.019,0,0,0,.132-3.582,4.979,4.979,0,0,0-3.544-2.184,4.689,4.689,0,0,0-.34,5.3,6.486,6.486,0,0,0,1.778,1.868q.16.117.327.226c-.11.092-.219.185-.331.275a23.967,23.967,0,0,1-2.883,1.96c-.166.1-.336.193-.505.288,1.035-1.118,1.824-2.532,1.38-4.01a5.3,5.3,0,0,0-2.865-2.882,5.091,5.091,0,0,0-.837.809,6.435,6.435,0,0,0-.814,1.174,4.563,4.563,0,0,0-.514,2.909,5.59,5.59,0,0,0,.916,2.2,7.986,7.986,0,0,0,.671.852c-.158.073-.316.147-.475.216a43.451,43.451,0,0,1-6.683,2.27,51.341,51.341,0,0,1-6.463,1.173c-.87.1-1.743.184-2.619.237-.1.005-.086.007-.132.089-.1.177-.2.354-.3.529a13.46,13.46,0,0,1-.738,1.182c.59-.026,1.178-.068,1.765-.122a49.956,49.956,0,0,0,12.937-2.906,36.071,36.071,0,0,0,4.759-2.181,8.208,8.208,0,0,0,.572,1.169,4.849,4.849,0,0,0,2.039,1.944,5.574,5.574,0,0,0,3.33.352,10.712,10.712,0,0,0,5.415-2.846,3.809,3.809,0,0,0-2.026-2.571c-1.715-.869-3.823-.5-5.609-.017-.356.1-.71.2-1.061.31a24.663,24.663,0,0,0,3.632-3.083c.038.044.075.089.114.133a6.148,6.148,0,0,0,2.438,1.808,4.813,4.813,0,0,0,3.377-.095,9.221,9.221,0,0,0,4.449-3.98,2.73,2.73,0,0,0-.255-.36,4.3,4.3,0,0,0-2.4-1.494,5.494,5.494,0,0,0-3.215.388,15.559,15.559,0,0,0-2.735,1.537,26.215,26.215,0,0,0,2.414-3.788,6.976,6.976,0,0,0,2.487,1.152,4.389,4.389,0,0,0,2.782-.322,6.323,6.323,0,0,0,2.426-2.133,8.549,8.549,0,0,0,1.269-2.57c-.052-.053-.108-.1-.165-.153a4.359,4.359,0,0,0-2.693-1.054,5.113,5.113,0,0,0-3.011,1.027,10.989,10.989,0,0,0-1.745,1.57c-.127.138-.251.278-.375.418a29.2,29.2,0,0,0,1.375-4.037C457.428,2213.03,457.434,2213.006,457.44,2212.981Z" fill="#ffba2b"/>
          <path id="Path_515" data-name="Path 515" d="M438.411,2233.248c-.046-.082-.035-.084-.131-.089-.876-.053-1.75-.135-2.62-.237a51.341,51.341,0,0,1-6.463-1.173,43.4,43.4,0,0,1-6.682-2.27c-.16-.069-.317-.143-.476-.216a8.122,8.122,0,0,0,.672-.852,5.588,5.588,0,0,0,.915-2.2,4.55,4.55,0,0,0-.514-2.909,6.48,6.48,0,0,0-.813-1.174,5.13,5.13,0,0,0-.837-.809,5.31,5.31,0,0,0-2.866,2.882c-.444,1.478.345,2.892,1.381,4.01-.169-.095-.339-.19-.506-.288a23.876,23.876,0,0,1-2.882-1.96c-.112-.09-.222-.183-.332-.275.111-.073.221-.148.328-.226a6.5,6.5,0,0,0,1.777-1.868,4.689,4.689,0,0,0-.34-5.3,4.98,4.98,0,0,0-3.544,2.184,4.022,4.022,0,0,0,.132,3.582c.037.078.077.155.117.232a24.626,24.626,0,0,1-2.714-3.2c.1-.035.2-.07.3-.107a6.475,6.475,0,0,0,2.229-1.354,4.5,4.5,0,0,0,.83-5.157,5.135,5.135,0,0,0-3.34,1,3.74,3.74,0,0,0-1.122,3.451,6.363,6.363,0,0,0,.126.692,26.493,26.493,0,0,1-1.537-2.9c-.107-.235-.209-.471-.309-.709a6.455,6.455,0,0,0,2.721-.949,4,4,0,0,0,1.626-2.187,5.133,5.133,0,0,0,.064-2.511,4.756,4.756,0,0,0-3.367.481,3.585,3.585,0,0,0-1.531,2.537,6.135,6.135,0,0,0-.069,1.2,28.647,28.647,0,0,1-1.055-3.72h.042c.135,0,.268,0,.4,0a7.274,7.274,0,0,0,.736-.056,5.572,5.572,0,0,0,1.264-.312,3.89,3.89,0,0,0,2.08-1.807,5.051,5.051,0,0,0,.53-2.474,4.714,4.714,0,0,0-2.5-.215,3.272,3.272,0,0,0-2.236,1.736,5.289,5.289,0,0,0-.557,1.858,29.45,29.45,0,0,1-.376-3.721c.214.037.431.068.649.087a5.681,5.681,0,0,0,1.428-.048,3.8,3.8,0,0,0,2.279-1.251,4.66,4.66,0,0,0,1.027-2.491,3.579,3.579,0,0,0-4.163.378,5.16,5.16,0,0,0-1.243,2.256c0-.319,0-.638.011-.957q.041-1.326.191-2.647c.074.023.148.048.223.068a5.646,5.646,0,0,0,1.505.214,3.615,3.615,0,0,0,2.466-.932,4.307,4.307,0,0,0,1.244-2.22,3.816,3.816,0,0,0-1.685-.645,2.922,2.922,0,0,0-2.16.588,4.766,4.766,0,0,0-1.372,1.793c-.039.083-.074.167-.11.25a27.35,27.35,0,0,1,.573-3.067c.026-.107.054-.213.082-.319l.114.049q.186.076.378.142a5.077,5.077,0,0,0,.7.184,3.409,3.409,0,0,0,2.574-.478,4.3,4.3,0,0,0,1.541-2.067,3.128,3.128,0,0,0-2.636-.731,3.6,3.6,0,0,0-2,1.42,6.234,6.234,0,0,0-.48.733c.189-.708.388-1.414.617-2.112.108-.329.225-.657.344-.982.108.059.218.117.331.17a3.452,3.452,0,0,0,2.767.205,3.87,3.87,0,0,0,1.944-1.97,2.642,2.642,0,0,0-3.641-.261,4.911,4.911,0,0,0-.873.867c-.117.147-.225.3-.329.453.2-.52.406-1.037.618-1.552.182-.442.375-.881.575-1.318l.108.072a3.169,3.169,0,0,0,2.694.467,3.536,3.536,0,0,0,1.877-1.679l-.021-.023a2.4,2.4,0,0,0-2.5-.759,3.734,3.734,0,0,0-1.341.824,5.167,5.167,0,0,0-.544.6c-.034.043-.066.086-.1.129.643-1.368,1.364-2.709,2.139-4.016.713-1.2,1.476-2.39,2.29-3.543h-.074c-.311.419-.619.839-.918,1.266q-1.33,1.9-2.474,3.9c.062-.207.122-.414.175-.623a4.274,4.274,0,0,0-.036-2.726,2.672,2.672,0,0,0-2.485-1.459,4.628,4.628,0,0,0-.785,2.431,2.492,2.492,0,0,0,1.282,2.233,4.851,4.851,0,0,0,1.263.493c.115.028.231.053.347.076-.1.172-.2.342-.289.515q-.764,1.407-1.427,2.857a6.885,6.885,0,0,0,.089-2.456,2.809,2.809,0,0,0-1.034-1.83,3.261,3.261,0,0,0-2.158-.588c-.813,1.483-1.1,3.717.539,4.84a3.945,3.945,0,0,0,1.086.5,6.213,6.213,0,0,0,.678.162c.127.023.253.042.381.059l.105.013q-.783,1.8-1.39,3.651a9.945,9.945,0,0,0-.025-1.413,3.911,3.911,0,0,0-1.178-2.72,3.445,3.445,0,0,0-2.766-.692,4.98,4.98,0,0,0-.321,1.121,5.448,5.448,0,0,0-.108,1.506,3.221,3.221,0,0,0,1.218,2.382,4.575,4.575,0,0,0,2.375.77c.129.01.26.017.39.021l.11,0a35.178,35.178,0,0,0-.913,3.847l0,.019c-.014-.117-.029-.235-.046-.352a5.535,5.535,0,0,0-1.557-3.526,3.654,3.654,0,0,0-3.344-.638,6.181,6.181,0,0,0-.133,2.741,3.792,3.792,0,0,0,1.306,2.346,4.144,4.144,0,0,0,2.337.783,7.067,7.067,0,0,0,.73,0c.131-.005.263-.014.4-.026l.108-.01a31.918,31.918,0,0,0-.292,4.1,7.108,7.108,0,0,0-2.015-3.534,3.878,3.878,0,0,0-4-.468,6.692,6.692,0,0,0,.253,2.725,4.43,4.43,0,0,0,1.7,2.484,4.2,4.2,0,0,0,2.556.621,8.038,8.038,0,0,0,1.532-.237,29.877,29.877,0,0,0,.473,4.139,8.767,8.767,0,0,0-2.272-2.872,4.041,4.041,0,0,0-2.761-.859,4.207,4.207,0,0,0-2.021.679,7.409,7.409,0,0,0,.661,2.576,5.492,5.492,0,0,0,2,2.43,4.147,4.147,0,0,0,2.615.579,6.581,6.581,0,0,0,1.42-.311c.256-.084.506-.18.752-.285l.034-.015c.006.025.011.049.018.074a29.469,29.469,0,0,0,1.375,4.037c-.124-.14-.247-.28-.375-.418a11.024,11.024,0,0,0-1.744-1.57,5.118,5.118,0,0,0-3.012-1.027,4.356,4.356,0,0,0-2.692,1.054c-.057.049-.113.1-.165.153a8.546,8.546,0,0,0,1.268,2.57,6.334,6.334,0,0,0,2.427,2.133,4.389,4.389,0,0,0,2.782.322,6.98,6.98,0,0,0,2.486-1.152,26.3,26.3,0,0,0,2.414,3.788,15.56,15.56,0,0,0-2.735-1.537,5.494,5.494,0,0,0-3.215-.388,4.3,4.3,0,0,0-2.4,1.494,2.646,2.646,0,0,0-.256.36,9.219,9.219,0,0,0,4.45,3.98,4.813,4.813,0,0,0,3.377.095,6.155,6.155,0,0,0,2.438-1.808l.113-.133a24.619,24.619,0,0,0,3.633,3.083c-.352-.109-.706-.214-1.062-.31-1.786-.478-3.894-.852-5.608.017a3.813,3.813,0,0,0-2.027,2.571,10.716,10.716,0,0,0,5.415,2.846,5.578,5.578,0,0,0,3.331-.352,4.861,4.861,0,0,0,2.039-1.944,8.206,8.206,0,0,0,.571-1.169,36.026,36.026,0,0,0,4.76,2.181,49.958,49.958,0,0,0,12.936,2.906c.587.054,1.176.1,1.765.122a13.442,13.442,0,0,1-.737-1.182C438.611,2233.6,438.51,2233.425,438.411,2233.248Z" fill="#ffc346"/>
        </g>
      </g>
      <circle id="Ellipse_10" data-name="Ellipse 10" cx="11.044" cy="11.044" r="11.044" transform="translate(421.249 2191.857)" fill="#ffc346"/>
      <g id="Group_833" data-name="Group 833">
        <rect id="Rectangle_29" data-name="Rectangle 29" width="263.37" height="17.021" transform="translate(302.402 2301.3)" fill="#ccc"/>
        <rect id="Rectangle_30" data-name="Rectangle 30" width="330.956" height="17.022" transform="translate(268.609 2331.742)" fill="#ccc"/>
        <rect id="Rectangle_31" data-name="Rectangle 31" width="263.37" height="17.021" transform="translate(302.402 2362.184)" fill="#ccc"/>
      </g>
      <g id="Group_835" data-name="Group 835">
        <g id="Group_834" data-name="Group 834">
          <path id="Path_516" data-name="Path 516" d="M628.69,2487.334l-18.447-9.455-6.347,19.733-26.562-64.075,24.794-10.279Z" fill="#d64900"/>
          <path id="Path_517" data-name="Path 517" d="M523.922,2487.334l18.447-9.455,6.347,19.733,26.562-64.075-24.794-10.279Z" fill="#d64900"/>
          <path id="Path_518" data-name="Path 518" d="M576.871,2331.159l2.432-4.091a3.131,3.131,0,0,1,5.7.72l1.338,4.567a3.132,3.132,0,0,0,5.215,1.339l3.372-3.358a3.132,3.132,0,0,1,5.34,2.114l.159,4.757a3.131,3.131,0,0,0,4.718,2.593l4.1-2.413a3.131,3.131,0,0,1,4.646,3.375l-1.028,4.647a3.131,3.131,0,0,0,3.924,3.685l4.574-1.317a3.131,3.131,0,0,1,3.66,4.424l-2.151,4.246a3.13,3.13,0,0,0,2.884,4.545l4.758-.139a3.132,3.132,0,0,1,2.445,5.2l-3.14,3.577a3.132,3.132,0,0,0,1.664,5.12l4.643,1.049a3.131,3.131,0,0,1,1.075,5.64l-3.93,2.684a3.132,3.132,0,0,0,.338,5.374l4.236,2.17a3.132,3.132,0,0,1-.36,5.731l-4.475,1.622A3.131,3.131,0,0,0,632,2404.3l3.563,3.156a3.131,3.131,0,0,1-1.774,5.461l-4.738.458a3.132,3.132,0,0,0-2.292,4.871l2.667,3.942a3.132,3.132,0,0,1-3.077,4.849l-4.7-.734a3.132,3.132,0,0,0-3.431,4.148l1.6,4.482a3.132,3.132,0,0,1-4.186,3.931l-4.372-1.881a3.132,3.132,0,0,0-4.356,3.164l.438,4.74a3.132,3.132,0,0,1-5.032,2.766l-3.767-2.908a3.132,3.132,0,0,0-5.006,1.981l-.755,4.7a3.132,3.132,0,0,1-5.562,1.428l-2.925-3.754a3.132,3.132,0,0,0-5.342.674l-1.9,4.364a3.132,3.132,0,0,1-5.743,0l-1.9-4.364a3.132,3.132,0,0,0-5.342-.674l-2.925,3.754a3.132,3.132,0,0,1-5.562-1.428l-.755-4.7a3.132,3.132,0,0,0-5.006-1.981l-3.767,2.908a3.131,3.131,0,0,1-5.032-2.766l.437-4.74a3.131,3.131,0,0,0-4.355-3.164l-4.372,1.881a3.131,3.131,0,0,1-4.186-3.931l1.6-4.482a3.132,3.132,0,0,0-3.432-4.148l-4.7.734a3.132,3.132,0,0,1-3.077-4.849l2.667-3.942a3.132,3.132,0,0,0-2.293-4.871l-4.737-.458a3.132,3.132,0,0,1-1.775-5.461l3.564-3.156a3.131,3.131,0,0,0-1.009-5.288l-4.475-1.622a3.131,3.131,0,0,1-.36-5.731l4.236-2.17a3.132,3.132,0,0,0,.337-5.374l-3.93-2.684a3.131,3.131,0,0,1,1.076-5.64l4.643-1.049a3.131,3.131,0,0,0,1.663-5.12l-3.14-3.577a3.132,3.132,0,0,1,2.446-5.2l4.757.139a3.131,3.131,0,0,0,2.885-4.545l-2.152-4.246a3.132,3.132,0,0,1,3.661-4.424l4.573,1.317a3.131,3.131,0,0,0,3.925-3.685l-1.028-4.647a3.131,3.131,0,0,1,4.645-3.375l4.1,2.413a3.131,3.131,0,0,0,4.718-2.593l.16-4.757a3.132,3.132,0,0,1,5.339-2.114l3.373,3.358a3.132,3.132,0,0,0,5.215-1.339l1.338-4.567a3.131,3.131,0,0,1,5.7-.72l2.432,4.091A3.131,3.131,0,0,0,576.871,2331.159Z" fill="#ffc346"/>
          <circle id="Ellipse_11" data-name="Ellipse 11" cx="48.709" cy="48.709" r="48.709" transform="translate(510.775 2362.756) rotate(-22.64)" fill="#f7f4ea"/>
          <circle id="Ellipse_12" data-name="Ellipse 12" cx="38.712" cy="38.712" r="38.712" transform="translate(522.623 2371.414) rotate(-26.305)" fill="#ffc346"/>
        </g>
        <path id="Path_519" data-name="Path 519" d="M574.481,2362.587l5.922,18.224h19.162l-15.5,11.264,5.921,18.224-15.5-11.263-15.5,11.263,5.921-18.224-15.5-11.264h19.162Z" fill="#f7f4ea"/>
      </g>
    </g>
    <rect id="Rectangle_32" data-name="Rectangle 32" width="161.642" height="4.415" transform="translate(292.094 2423.259)" fill="#ccc"/>
    <g id="Group_837" data-name="Group 837">
      <path id="Path_520" data-name="Path 520" d="M325.62,2429.059a4.977,4.977,0,0,1-2.591-.681,6.877,6.877,0,0,1-2.408-2.86,38.4,38.4,0,0,1-3.557-9.628,6.63,6.63,0,0,1-.084-3.333,6.479,6.479,0,0,1,3.355-3.673,20.378,20.378,0,0,1,16.275-1.45,34.336,34.336,0,0,1,5.923,2.864,28.723,28.723,0,0,0,2.473-8.115c.106-.734.193-1.484.276-2.233.382-3.348.814-7.144,3.291-9.984a1.768,1.768,0,0,1,2.663,2.327c-1.753,2.007-2.088,4.945-2.441,8.056-.091.789-.24,1.572-.293,2.347a20.606,20.606,0,0,1-2.9,9.363,27.227,27.227,0,0,0,3.493,1.661,18.373,18.373,0,0,0,14.976-1.01c.814-.435,1.593-.932,2.372-1.43a29.932,29.932,0,0,1,3.773-2.145c3.016-1.341,6.045-1.39,8.313-.133a12.509,12.509,0,0,1,1.95,1.435,9.5,9.5,0,0,0,1.27.981,5.994,5.994,0,0,0,5.82-.4,20.129,20.129,0,0,0,5.031-4.708,3.28,3.28,0,0,1,.424-.488l2.559,2.431c-.037.044-.076.093-.116.138.207-.079.575.335.89.365a6.822,6.822,0,0,0,2.17-.316,12.7,12.7,0,0,1,2.41-.434,13.327,13.327,0,0,1,5.495,1.287,8.61,8.61,0,0,0,4.3.971,8.352,8.352,0,0,0,2.275-.976,10.5,10.5,0,0,1,3.653-1.4,10.782,10.782,0,0,1,5.433,1.139c1.5.6,2.8,1.118,3.878.8a1.767,1.767,0,1,1,1.025,3.382c-2.3.7-4.382-.162-6.229-.907a7.783,7.783,0,0,0-3.658-.9,7.538,7.538,0,0,0-2.419.991,11.223,11.223,0,0,1-3.313,1.341c-2.3.454-4.4-.419-6.261-1.164a10.1,10.1,0,0,0-3.979-1.035,9.276,9.276,0,0,0-1.745.331,9.392,9.392,0,0,1-3.4.4,4.564,4.564,0,0,1-2.731-1.376,17.835,17.835,0,0,1-3.937,3.19,9.393,9.393,0,0,1-9.39.365,13.889,13.889,0,0,1-1.748-1.321,8.633,8.633,0,0,0-1.37-1.036c-1.834-1.011-4.221-.148-5.16.266a26.618,26.618,0,0,0-3.315,1.9c-.853.542-1.706,1.084-2.594,1.563a21.951,21.951,0,0,1-17.9,1.2,30.808,30.808,0,0,1-3.95-1.864,33.658,33.658,0,0,1-14.458,12.922A9.5,9.5,0,0,1,325.62,2429.059Zm4.531-19.155a16.733,16.733,0,0,0-8.1,2.066c-.989.552-1.536,1.06-1.675,1.548a3.8,3.8,0,0,0,.131,1.6,34.836,34.836,0,0,0,3.23,8.742,3.916,3.916,0,0,0,1.109,1.484c.589.355,1.642.192,3.128-.478a30.065,30.065,0,0,0,12.861-11.463,30.593,30.593,0,0,0-5.377-2.628A16.464,16.464,0,0,0,330.151,2409.9Z" fill="#58abca"/>
    </g>
  </g>
</svg>
