<svg id="Component_2_1" data-name="Component 2 – 1" xmlns="http://www.w3.org/2000/svg" xmlns:xlink="http://www.w3.org/1999/xlink" width="561.853" height="337.608" viewBox="0 0 561.853 337.608">
  <defs>
    <clipPath id="clip-path">
      <path id="Path_439" data-name="Path 439" d="M571.044,1138.688c-37.785,66.458-103.6,37.147-193.138,23.449-30.077-4.6-53.289,5.183-70.853,20.208l1.4,45.147c0,5.181,4.5,9.381,10.056,9.381H614.7c5.554,0,10.056-4.2,10.056-9.381l6.269-134.82C603.387,1105.841,580.979,1121.214,571.044,1138.688Z" fill="none"/>
    </clipPath>
  </defs>
  <g id="Group_797" data-name="Group 797" transform="translate(-172.147 -978.083)">
    <path id="Path_304" data-name="Path 304" d="M285.477,1310.379s-37.246-27.738-86.6-119.807-30.57-200.479,58.132-210.9,157.578,33.961,157.578,33.961,76.659-46.837,171.164-18.207c89.567,27.135,87.03,106.526,87.03,106.526s57.644,24.916,61.028,92.287c3.793,75.5-49.59,115.9-49.59,115.9Z" fill="#f7c9cf"/>
  </g>
  <g id="Group_803" data-name="Group 803" transform="translate(-172.147 -978.083)">
    <g id="Group_799" data-name="Group 799">
      <g id="Group_798" data-name="Group 798">
        <path id="Path_305" data-name="Path 305" d="M280.629,1306.193s-21.129-71.619-22.825-87.417,10.12-10.9,10.12-10.9-9.939-30.1-2.752-37.248,13.671,6.173,13.671,6.173,2.176-36.543,9.839-36.556c14.274-.026,13.992,39.853,13.992,39.853s3.3-15.986,13.409-9.768c11.253,6.92-4.2,39.814-4.2,39.814s12.258-3.945,16.923,3.781C344.532,1239.968,280.629,1306.193,280.629,1306.193Z" fill="#50bfa5"/>
      </g>
    </g>
    <g id="Group_801" data-name="Group 801">
      <g id="Group_800" data-name="Group 800">
        <path id="Path_306" data-name="Path 306" d="M287.538,1296.713s-60.914-10.186-74.164-20.979-.136-15.66-.136-15.66-30.6-15.687-30.246-26.354,15.556-5.243,15.556-5.243-25.784-29.4-19.679-34.985c11.369-10.4,41.177,20.163,41.177,20.163s-8.851-14.535.47-16.835c14.058-3.469,24.432,32.371,24.432,32.371s-2.635-14.154,7.058-12.268C269.4,1220.305,287.538,1296.713,287.538,1296.713Z" fill="#50bfa5"/>
      </g>
      <path id="Path_307" data-name="Path 307" d="M252.006,1216.923c-9.717-1.757-7.058,12.268-7.058,12.268s-10.374-35.84-24.432-32.371c-9.321,2.3-.47,16.835-.47,16.835s-29.808-30.563-41.177-20.163l108.463,103.239C285.4,1286.87,268.3,1219.868,252.006,1216.923Z" fill="#3c8f7c"/>
    </g>
    <g id="Group_802" data-name="Group 802">
      <path id="Path_308" data-name="Path 308" d="M311.88,1305.116s-32.08-32.624-48.234-36.021-13.249,8.1-13.249,8.1-32.052-28.03-39.48-21.238.607,13.347.607,13.347-26.7-4.73-30.519,4.031c-5.873,13.462,38.035,20.789,38.035,20.789s-18.4,1.275-14.133,9.716C211.342,1316.568,311.88,1305.116,311.88,1305.116Z" fill="#355389"/>
      <path id="Path_309" data-name="Path 309" d="M181.005,1273.332c3.822-8.761,30.519-4.031,30.519-4.031s-8.034-6.556-.607-13.347S249.4,1273.38,249.4,1273.38s-7.322-14,8.833-10.6,53.647,42.335,53.647,42.335Z" fill="#466eb6"/>
    </g>
  </g>
  <g id="Group_804" data-name="Group 804" transform="translate(-172.147 -978.083)">
    <path id="Path_310" data-name="Path 310" d="M712.8,1315.691H234.7a3.98,3.98,0,0,1-3.981-3.98h0a3.981,3.981,0,0,1,3.981-3.981H712.8a3.981,3.981,0,0,1,3.981,3.981h0A3.981,3.981,0,0,1,712.8,1315.691Z" fill="#00b3bf"/>
  </g>
  <g id="Group_817" data-name="Group 817" transform="translate(-172.147 -978.083)">
    <g id="Group_805" data-name="Group 805">
      <path id="Path_311" data-name="Path 311" d="M625.589,1248.358H305.024c-5.553,0-10.055-4.2-10.055-9.381l-6.1-219.462c0-5.182,4.5-9.382,10.056-9.382H634.737c5.553,0,10.055,4.2,10.055,9.382l-9.147,219.462C635.645,1244.158,631.143,1248.358,625.589,1248.358Z" fill="#8293e0"/>
    </g>
    <g id="Group_806" data-name="Group 806">
      <path id="Path_312" data-name="Path 312" d="M640.887,1012.092a8.9,8.9,0,0,1,1.69,5.207l-9.148,219.463c0,5.181-4.5,9.381-10.055,9.381H302.809a10.479,10.479,0,0,1-6.15-1.959,10.251,10.251,0,0,0,8.365,4.174H625.589c5.554,0,10.056-4.2,10.056-9.381l9.147-219.463A9.161,9.161,0,0,0,640.887,1012.092Z" fill="#676e9c"/>
    </g>
    <g id="Group_807" data-name="Group 807">
      <path id="Path_313" data-name="Path 313" d="M308.909,1222.667l-6.1-196.72c0-5.181,4.5-9.381,10.056-9.381H624.3c5.553,0,10.056,4.2,10.056,9.381l-9.148,196.72c0,5.181-4.5,9.381-10.055,9.381H318.965C313.411,1232.048,308.909,1227.848,308.909,1222.667Z" fill="#82c7e6"/>
    </g>
    <g id="Group_810" data-name="Group 810" opacity="0.32" style="mix-blend-mode: screen;isolation: isolate">
      <g id="Group_809" data-name="Group 809">
        <g id="Group_808" data-name="Group 808" clip-path="url(#clip-path)">
          <path id="Path_314" data-name="Path 314" d="M619.6,1236.873l11.421-.742v.742Z" fill="#118dc9"/>
          <path id="Path_315" data-name="Path 315" d="M602.705,1236.873l28.315-1.84v1.1l-11.421.742Z" fill="#128ec9"/>
          <path id="Path_316" data-name="Path 316" d="M585.811,1236.873l45.209-2.938v1.1l-28.315,1.84Z" fill="#138ec9"/>
          <path id="Path_317" data-name="Path 317" d="M568.917,1236.873l62.1-4.036v1.1l-45.209,2.938Z" fill="#148fca"/>
          <path id="Path_318" data-name="Path 318" d="M552.023,1236.873l79-5.133v1.1l-62.1,4.036Z" fill="#1590ca"/>
          <path id="Path_319" data-name="Path 319" d="M535.128,1236.873l95.892-6.231v1.1l-79,5.133Z" fill="#1690cb"/>
          <path id="Path_320" data-name="Path 320" d="M518.234,1236.873l112.786-7.329v1.1l-95.892,6.231Z" fill="#1791cb"/>
          <path id="Path_321" data-name="Path 321" d="M501.34,1236.873l129.68-8.427v1.1l-112.786,7.329Z" fill="#1891cc"/>
          <path id="Path_322" data-name="Path 322" d="M484.446,1236.873l146.574-9.525v1.1l-129.68,8.427Z" fill="#1992cc"/>
          <path id="Path_323" data-name="Path 323" d="M467.552,1236.873,631.02,1226.25v1.1l-146.574,9.525Z" fill="#1a93cd"/>
          <path id="Path_324" data-name="Path 324" d="M450.658,1236.873l180.362-11.72v1.1l-163.468,10.623Z" fill="#1b93cd"/>
          <path id="Path_325" data-name="Path 325" d="M433.764,1236.873l197.257-12.818v1.1l-180.362,11.72Z" fill="#1c94cd"/>
          <path id="Path_326" data-name="Path 326" d="M416.869,1236.873l214.151-13.916v1.1l-197.257,12.818Z" fill="#1d95ce"/>
          <path id="Path_327" data-name="Path 327" d="M399.975,1236.873l231.045-15.014v1.1l-214.151,13.916Z" fill="#1e95ce"/>
          <path id="Path_328" data-name="Path 328" d="M383.081,1236.873l247.939-16.112v1.1l-231.045,15.014Z" fill="#1f96cf"/>
          <path id="Path_329" data-name="Path 329" d="M366.187,1236.873l264.833-17.21v1.1l-247.939,16.112Z" fill="#2097cf"/>
          <path id="Path_330" data-name="Path 330" d="M349.293,1236.873l281.727-18.307v1.1l-264.833,17.21Z" fill="#2197d0"/>
          <path id="Path_331" data-name="Path 331" d="M332.4,1236.873l298.622-19.405v1.1l-281.727,18.307Z" fill="#2298d0"/>
          <path id="Path_332" data-name="Path 332" d="M315.5,1236.873l315.516-20.5v1.1L332.4,1236.873Z" fill="#2399d1"/>
          <path id="Path_333" data-name="Path 333" d="M308.1,1236.873l-.04-.614,322.96-20.987v1.1l-315.516,20.5Z" fill="#2499d1"/>
          <path id="Path_334" data-name="Path 334" d="M308.06,1236.259l-.071-1.093,323.031-20.991v1.1Z" fill="#259ad1"/>
          <path id="Path_335" data-name="Path 335" d="M307.989,1235.166l-.071-1.093,323.1-21v1.1Z" fill="#269ad2"/>
          <path id="Path_336" data-name="Path 336" d="M307.918,1234.072l-.071-1.093,323.173-21v1.1Z" fill="#279bd2"/>
          <path id="Path_337" data-name="Path 337" d="M307.847,1232.979l-.071-1.093,323.244-21.005v1.1Z" fill="#289cd3"/>
          <path id="Path_338" data-name="Path 338" d="M307.776,1231.886l-.071-1.093,323.315-21.01v1.1Z" fill="#299cd3"/>
          <path id="Path_339" data-name="Path 339" d="M307.7,1230.793l-.071-1.093,323.386-21.014v1.1Z" fill="#2a9dd4"/>
          <path id="Path_340" data-name="Path 340" d="M307.634,1229.7l-.071-1.093,323.457-21.019v1.1Z" fill="#2b9ed4"/>
          <path id="Path_341" data-name="Path 341" d="M307.563,1228.606l-.071-1.093L631.02,1206.49v1.1Z" fill="#2c9ed4"/>
          <path id="Path_342" data-name="Path 342" d="M307.492,1227.513l-.071-1.093,323.6-21.028v1.1Z" fill="#2d9fd5"/>
          <path id="Path_343" data-name="Path 343" d="M307.421,1226.42l-.071-1.093,323.671-21.033v1.1Z" fill="#2ea0d5"/>
          <path id="Path_344" data-name="Path 344" d="M307.35,1225.327l-.071-1.093L631.02,1203.2v1.1Z" fill="#2fa0d6"/>
          <path id="Path_345" data-name="Path 345" d="M307.279,1224.234l-.071-1.093L631.02,1202.1v1.1Z" fill="#30a1d6"/>
          <path id="Path_346" data-name="Path 346" d="M307.208,1223.14l-.071-1.093L631.02,1201v1.1Z" fill="#31a2d7"/>
          <path id="Path_347" data-name="Path 347" d="M307.136,1222.047l-.071-1.093L631.02,1199.9v1.1Z" fill="#32a2d7"/>
          <path id="Path_348" data-name="Path 348" d="M307.065,1220.954l-.013-.193v-.9L631.02,1198.8v1.1Z" fill="#33a3d8"/>
          <path id="Path_349" data-name="Path 349" d="M307.053,1218.759l323.967-21.052v1.1l-323.967,21.052Z" fill="#34a3d8"/>
          <path id="Path_350" data-name="Path 350" d="M307.053,1217.661l323.967-21.052v1.1l-323.967,21.052Z" fill="#35a4d8"/>
          <path id="Path_351" data-name="Path 351" d="M307.053,1216.563l323.967-21.052v1.1l-323.967,21.052Z" fill="#36a5d9"/>
          <path id="Path_352" data-name="Path 352" d="M307.053,1215.466l323.967-21.052v1.1l-323.967,21.052Z" fill="#37a5d9"/>
          <path id="Path_353" data-name="Path 353" d="M307.053,1214.368l323.967-21.052v1.1l-323.967,21.052Z" fill="#38a6da"/>
          <path id="Path_354" data-name="Path 354" d="M307.053,1213.27l323.967-21.052v1.1l-323.967,21.052Z" fill="#39a7da"/>
          <path id="Path_355" data-name="Path 355" d="M307.053,1212.172,631.02,1191.12v1.1L307.053,1213.27Z" fill="#3aa7db"/>
          <path id="Path_356" data-name="Path 356" d="M307.053,1211.074l323.967-21.052v1.1l-323.967,21.052Z" fill="#3ba8db"/>
          <path id="Path_357" data-name="Path 357" d="M307.053,1209.977l323.967-21.052v1.1l-323.967,21.052Z" fill="#3ca9dc"/>
          <path id="Path_358" data-name="Path 358" d="M307.053,1208.879l323.967-21.052v1.1l-323.967,21.052Z" fill="#3da9dc"/>
          <path id="Path_359" data-name="Path 359" d="M307.053,1207.781l323.967-21.052v1.1l-323.967,21.052Z" fill="#3eaadc"/>
          <path id="Path_360" data-name="Path 360" d="M307.053,1206.683l323.967-21.052v1.1l-323.967,21.052Z" fill="#3fabdd"/>
          <path id="Path_361" data-name="Path 361" d="M307.053,1205.585l323.967-21.052v1.1l-323.967,21.052Z" fill="#40abdd"/>
          <path id="Path_362" data-name="Path 362" d="M307.053,1204.487l323.967-21.052v1.1l-323.967,21.052Z" fill="#41acde"/>
          <path id="Path_363" data-name="Path 363" d="M307.053,1203.39l323.967-21.052v1.1l-323.967,21.052Z" fill="#42acde"/>
          <path id="Path_364" data-name="Path 364" d="M307.053,1202.292,631.02,1181.24v1.1L307.053,1203.39Z" fill="#43addf"/>
          <path id="Path_365" data-name="Path 365" d="M307.053,1201.194l323.967-21.052v1.1l-323.967,21.052Z" fill="#44aedf"/>
          <path id="Path_366" data-name="Path 366" d="M307.053,1200.1l323.967-21.052v1.1l-323.967,21.052Z" fill="#45aee0"/>
          <path id="Path_367" data-name="Path 367" d="M307.053,1199l323.967-21.052v1.1L307.053,1200.1Z" fill="#47afe0"/>
          <path id="Path_368" data-name="Path 368" d="M307.053,1197.9l323.967-21.052v1.1L307.053,1199Z" fill="#48b0e0"/>
          <path id="Path_369" data-name="Path 369" d="M307.053,1196.8,631.02,1175.75v1.1L307.053,1197.9Z" fill="#49b0e1"/>
          <path id="Path_370" data-name="Path 370" d="M307.053,1195.7l323.967-21.052v1.1L307.053,1196.8Z" fill="#4ab1e1"/>
          <path id="Path_371" data-name="Path 371" d="M307.053,1194.607l323.967-21.052v1.1L307.053,1195.7Z" fill="#4bb2e2"/>
          <path id="Path_372" data-name="Path 372" d="M307.053,1193.509l323.967-21.052v1.1l-323.967,21.052Z" fill="#4cb2e2"/>
          <path id="Path_373" data-name="Path 373" d="M307.053,1192.411l323.967-21.052v1.1l-323.967,21.052Z" fill="#4db3e3"/>
          <path id="Path_374" data-name="Path 374" d="M307.053,1191.313l323.967-21.052v1.1l-323.967,21.052Z" fill="#4eb4e3"/>
          <path id="Path_375" data-name="Path 375" d="M307.053,1190.216l323.967-21.052v1.1l-323.967,21.052Z" fill="#4fb4e4"/>
          <path id="Path_376" data-name="Path 376" d="M307.053,1189.118l323.967-21.052v1.1l-323.967,21.052Z" fill="#50b5e4"/>
          <path id="Path_377" data-name="Path 377" d="M307.053,1188.02l323.967-21.052v1.1l-323.967,21.052Z" fill="#51b5e4"/>
          <path id="Path_378" data-name="Path 378" d="M307.053,1186.922,631.02,1165.87v1.1L307.053,1188.02Z" fill="#52b6e5"/>
          <path id="Path_379" data-name="Path 379" d="M307.053,1185.824l323.967-21.052v1.1l-323.967,21.052Z" fill="#53b7e5"/>
          <path id="Path_380" data-name="Path 380" d="M307.053,1184.727l323.967-21.052v1.1l-323.967,21.052Z" fill="#54b7e6"/>
          <path id="Path_381" data-name="Path 381" d="M307.053,1183.629l323.967-21.052v1.1l-323.967,21.052Z" fill="#55b8e6"/>
          <path id="Path_382" data-name="Path 382" d="M307.053,1182.531l323.967-21.052v1.1l-323.967,21.052Z" fill="#56b9e7"/>
          <path id="Path_383" data-name="Path 383" d="M307.053,1181.433l323.967-21.052v1.1l-323.967,21.052Z" fill="#57b9e7"/>
          <path id="Path_384" data-name="Path 384" d="M307.053,1180.335l323.967-21.052v1.1l-323.967,21.052Z" fill="#58bae8"/>
          <path id="Path_385" data-name="Path 385" d="M307.053,1179.237l323.967-21.052v1.1l-323.967,21.052Z" fill="#59bbe8"/>
          <path id="Path_386" data-name="Path 386" d="M307.053,1178.14l323.967-21.052v1.1l-323.967,21.052Z" fill="#5abbe8"/>
          <path id="Path_387" data-name="Path 387" d="M307.053,1177.042,631.02,1155.99v1.1L307.053,1178.14Z" fill="#5bbce9"/>
          <path id="Path_388" data-name="Path 388" d="M307.053,1175.944l323.967-21.052v1.1l-323.967,21.052Z" fill="#5cbde9"/>
          <path id="Path_389" data-name="Path 389" d="M307.053,1174.846l323.967-21.052v1.1l-323.967,21.052Z" fill="#5dbdea"/>
          <path id="Path_390" data-name="Path 390" d="M307.053,1173.748,631.02,1152.7v1.1l-323.967,21.052Z" fill="#5ebeea"/>
          <path id="Path_391" data-name="Path 391" d="M307.053,1172.651,631.02,1151.6v1.1l-323.967,21.052Z" fill="#5fbeeb"/>
          <path id="Path_392" data-name="Path 392" d="M307.053,1171.553,631.02,1150.5v1.1l-323.967,21.052Z" fill="#60bfeb"/>
          <path id="Path_393" data-name="Path 393" d="M307.053,1170.455,631.02,1149.4v1.1l-323.967,21.052Z" fill="#61c0ec"/>
          <path id="Path_394" data-name="Path 394" d="M307.053,1169.357,631.02,1148.3v1.1l-323.967,21.052Z" fill="#62c0ec"/>
          <path id="Path_395" data-name="Path 395" d="M307.053,1168.259l323.967-21.052v1.1l-323.967,21.052Z" fill="#63c1ec"/>
          <path id="Path_396" data-name="Path 396" d="M307.053,1167.161l323.967-21.052v1.1l-323.967,21.052Z" fill="#64c2ed"/>
          <path id="Path_397" data-name="Path 397" d="M307.053,1166.063l323.967-21.052v1.1l-323.967,21.052Z" fill="#65c2ed"/>
          <path id="Path_398" data-name="Path 398" d="M307.053,1164.966l323.967-21.052v1.1l-323.967,21.052Z" fill="#66c3ee"/>
          <path id="Path_399" data-name="Path 399" d="M307.053,1163.868l323.967-21.052v1.1l-323.967,21.052Z" fill="#67c4ee"/>
          <path id="Path_400" data-name="Path 400" d="M307.053,1162.77l323.967-21.052v1.1l-323.967,21.052Z" fill="#68c4ef"/>
          <path id="Path_401" data-name="Path 401" d="M307.053,1161.672,631.02,1140.62v1.1L307.053,1162.77Z" fill="#69c5ef"/>
          <path id="Path_402" data-name="Path 402" d="M307.053,1160.574l323.967-21.052v1.1l-323.967,21.052Z" fill="#6ac6f0"/>
          <path id="Path_403" data-name="Path 403" d="M307.053,1159.477l323.967-21.052v1.1l-323.967,21.052Z" fill="#6bc6f0"/>
          <path id="Path_404" data-name="Path 404" d="M307.053,1158.379l323.967-21.052v1.1l-323.967,21.052Z" fill="#6cc7f0"/>
          <path id="Path_405" data-name="Path 405" d="M307.053,1157.281l323.967-21.052v1.1l-323.967,21.052Z" fill="#6dc7f1"/>
          <path id="Path_406" data-name="Path 406" d="M307.053,1156.183l323.967-21.052v1.1l-323.967,21.052Z" fill="#6ec8f1"/>
          <path id="Path_407" data-name="Path 407" d="M307.053,1155.085l323.967-21.052v1.1l-323.967,21.052Z" fill="#6fc9f2"/>
          <path id="Path_408" data-name="Path 408" d="M307.053,1153.987l323.967-21.052v1.1l-323.967,21.052Z" fill="#70c9f2"/>
          <path id="Path_409" data-name="Path 409" d="M307.053,1152.89l323.967-21.052v1.1l-323.967,21.052Z" fill="#71caf3"/>
          <path id="Path_410" data-name="Path 410" d="M307.053,1151.792,631.02,1130.74v1.1L307.053,1152.89Z" fill="#72cbf3"/>
          <path id="Path_411" data-name="Path 411" d="M307.053,1150.694l323.967-21.052v1.1l-323.967,21.052Z" fill="#73cbf3"/>
          <path id="Path_412" data-name="Path 412" d="M307.053,1149.6l323.967-21.052v1.1l-323.967,21.052Z" fill="#74ccf4"/>
          <path id="Path_413" data-name="Path 413" d="M307.053,1148.5l323.967-21.052v1.1L307.053,1149.6Z" fill="#75cdf4"/>
          <path id="Path_414" data-name="Path 414" d="M307.053,1147.4l323.967-21.052v1.1L307.053,1148.5Z" fill="#76cdf5"/>
          <path id="Path_415" data-name="Path 415" d="M307.053,1146.3,631.02,1125.25v1.1L307.053,1147.4Z" fill="#77cef5"/>
          <path id="Path_416" data-name="Path 416" d="M307.053,1145.2l323.967-21.052v1.1L307.053,1146.3Z" fill="#78cff6"/>
          <path id="Path_417" data-name="Path 417" d="M307.053,1144.107l323.967-21.052v1.1L307.053,1145.2Z" fill="#79cff6"/>
          <path id="Path_418" data-name="Path 418" d="M307.053,1143.009l323.967-21.052v1.1l-323.967,21.052Z" fill="#7ad0f7"/>
          <path id="Path_419" data-name="Path 419" d="M307.053,1141.911l323.967-21.052v1.1l-323.967,21.052Z" fill="#7bd0f7"/>
          <path id="Path_420" data-name="Path 420" d="M307.053,1140.813l323.967-21.052v1.1l-323.967,21.052Z" fill="#7cd1f7"/>
          <path id="Path_421" data-name="Path 421" d="M307.053,1139.716l323.967-21.052v1.1l-323.967,21.052Z" fill="#7dd2f8"/>
          <path id="Path_422" data-name="Path 422" d="M307.053,1138.618l323.967-21.052v1.1l-323.967,21.052Z" fill="#7ed2f8"/>
          <path id="Path_423" data-name="Path 423" d="M307.053,1137.52l323.967-21.052v1.1l-323.967,21.052Z" fill="#7fd3f9"/>
          <path id="Path_424" data-name="Path 424" d="M307.053,1136.422,631.02,1115.37v1.1L307.053,1137.52Z" fill="#80d4f9"/>
          <path id="Path_425" data-name="Path 425" d="M307.053,1135.324l323.967-21.052v1.1l-323.967,21.052Z" fill="#81d4fa"/>
          <path id="Path_426" data-name="Path 426" d="M307.053,1134.227l323.967-21.052v1.1l-323.967,21.052Z" fill="#82d5fa"/>
          <path id="Path_427" data-name="Path 427" d="M307.053,1133.129l323.967-21.052v1.1l-323.967,21.052Z" fill="#83d6fb"/>
          <path id="Path_428" data-name="Path 428" d="M307.053,1132.031l323.967-21.052v1.1l-323.967,21.052Z" fill="#84d6fb"/>
          <path id="Path_429" data-name="Path 429" d="M307.053,1130.933l323.967-21.052v1.1l-323.967,21.052Z" fill="#85d7fb"/>
          <path id="Path_430" data-name="Path 430" d="M307.053,1129.835l323.967-21.052v1.1l-323.967,21.052Z" fill="#86d8fc"/>
          <path id="Path_431" data-name="Path 431" d="M307.053,1128.737l323.967-21.052v1.1l-323.967,21.052Z" fill="#87d8fc"/>
          <path id="Path_432" data-name="Path 432" d="M307.053,1127.64l323.967-21.052v1.1l-323.967,21.052Z" fill="#88d9fd"/>
          <path id="Path_433" data-name="Path 433" d="M307.053,1126.542,631.02,1105.49v1.1L307.053,1127.64Z" fill="#89d9fd"/>
          <path id="Path_434" data-name="Path 434" d="M307.053,1125.444l323.967-21.052v1.1l-323.967,21.052Z" fill="#8adafe"/>
          <path id="Path_435" data-name="Path 435" d="M307.053,1124.346l323.967-21.052v1.1l-323.967,21.052Z" fill="#8bdbfe"/>
          <path id="Path_436" data-name="Path 436" d="M307.053,1123.248,631.02,1102.2v1.1l-323.967,21.052Z" fill="#8cdbff"/>
          <path id="Path_437" data-name="Path 437" d="M307.053,1122.151,631.02,1101.1v1.1l-323.967,21.052Z" fill="#8ddcff"/>
          <path id="Path_438" data-name="Path 438" d="M631.02,1101.1l-323.967,21.052v-29.478H631.02Z" fill="#8ddcff"/>
        </g>
      </g>
    </g>
    <g id="Group_812" data-name="Group 812">
      <g id="Group_811" data-name="Group 811">
        <path id="Path_440" data-name="Path 440" d="M612.97,1224.989h-5.611a.3.3,0,1,1,0-.609h5.029l.08-1.7a.3.3,0,0,1,.318-.29.3.3,0,0,1,.29.319Zm-12.925,0h-7.313a.3.3,0,1,1,0-.609h7.313a.3.3,0,1,1,0,.609Zm-14.626,0h-7.313a.3.3,0,1,1,0-.609h7.313a.3.3,0,1,1,0,.609Zm-14.627,0h-7.313a.3.3,0,1,1,0-.609h7.313a.3.3,0,1,1,0,.609Zm-14.626,0h-7.313a.3.3,0,1,1,0-.609h7.313a.3.3,0,1,1,0,.609Zm-14.627,0h-7.313a.3.3,0,1,1,0-.609h7.313a.3.3,0,1,1,0,.609Zm-14.626,0H519.6a.3.3,0,1,1,0-.609h7.313a.3.3,0,1,1,0,.609Zm-14.627,0h-7.313a.3.3,0,1,1,0-.609h7.313a.3.3,0,1,1,0,.609Zm-14.626,0h-7.314a.3.3,0,0,1,0-.609h7.314a.3.3,0,0,1,0,.609Zm-14.627,0H475.72a.3.3,0,1,1,0-.609h7.313a.3.3,0,1,1,0,.609Zm-14.626,0h-7.314a.3.3,0,0,1,0-.609h7.314a.3.3,0,0,1,0,.609Zm-14.627,0h-7.313a.3.3,0,1,1,0-.609h7.313a.3.3,0,1,1,0,.609Zm-14.627,0H431.84a.3.3,0,0,1,0-.609h7.313a.3.3,0,1,1,0,.609Zm-14.626,0h-7.313a.3.3,0,1,1,0-.609h7.313a.3.3,0,1,1,0,.609Zm-14.626,0h-7.314a.3.3,0,0,1,0-.609H409.9a.3.3,0,0,1,0,.609Zm-14.627,0h-7.313a.3.3,0,1,1,0-.609h7.313a.3.3,0,1,1,0,.609Zm-14.626,0h-7.314a.3.3,0,0,1,0-.609h7.314a.3.3,0,0,1,0,.609Zm-14.627,0h-7.313a.3.3,0,1,1,0-.609h7.313a.3.3,0,1,1,0,.609Zm-14.626,0h-7.314a.3.3,0,0,1,0-.609h7.314a.3.3,0,0,1,0,.609Zm-14.627,0h-7.313a.3.3,0,1,1,0-.609h7.313a.3.3,0,1,1,0,.609Zm-14.626,0h-1.878l-.235-7.6a.306.306,0,0,1,.3-.314.31.31,0,0,1,.314.3l.217,7.015h1.287a.3.3,0,0,1,0,.609Zm290.97-9.3H613.1a.3.3,0,0,1-.289-.318l.339-7.306a.3.3,0,0,1,.608.028l-.339,7.306A.3.3,0,0,1,613.112,1215.693Zm-293.006-5.323a.3.3,0,0,1-.3-.3l-.226-7.31a.3.3,0,0,1,.609-.019l.226,7.309a.306.306,0,0,1-.3.315Zm293.685-9.287h-.014a.3.3,0,0,1-.29-.318l.34-7.305a.3.3,0,0,1,.318-.29.3.3,0,0,1,.29.318l-.34,7.306A.3.3,0,0,1,613.791,1201.083Zm-294.137-5.333a.3.3,0,0,1-.3-.3l-.227-7.309a.306.306,0,0,1,.3-.315.309.309,0,0,1,.314.3l.226,7.309a.3.3,0,0,1-.3.314Zm294.816-9.278h-.014a.3.3,0,0,1-.29-.318l.34-7.3a.3.3,0,1,1,.608.029l-.34,7.3A.3.3,0,0,1,614.47,1186.472ZM319.2,1181.13a.3.3,0,0,1-.3-.3l-.227-7.309a.306.306,0,0,1,.295-.315.315.315,0,0,1,.314.3l.227,7.309a.3.3,0,0,1-.3.314Zm295.95-9.269h-.014a.3.3,0,0,1-.29-.318l.34-7.306a.293.293,0,0,1,.318-.29.3.3,0,0,1,.29.319l-.34,7.305A.3.3,0,0,1,615.15,1171.861Zm-296.4-5.35a.3.3,0,0,1-.3-.3l-.227-7.31a.3.3,0,0,1,.295-.314.294.294,0,0,1,.314.295l.227,7.31a.3.3,0,0,1-.3.314Zm297.082-9.261h-.014a.3.3,0,0,1-.29-.319l.34-7.3a.3.3,0,0,1,.318-.291.305.305,0,0,1,.29.319l-.34,7.3A.3.3,0,0,1,615.829,1157.25Zm-297.535-5.358a.306.306,0,0,1-.3-.295l-.226-7.31a.3.3,0,0,1,.3-.314.3.3,0,0,1,.314.295l.227,7.309a.306.306,0,0,1-.3.315Zm298.215-9.252h-.014a.3.3,0,0,1-.29-.318l.34-7.306a.3.3,0,0,1,.318-.289.3.3,0,0,1,.29.318l-.34,7.306A.3.3,0,0,1,616.509,1142.64Zm-298.669-5.368a.3.3,0,0,1-.3-.295l-.226-7.31a.3.3,0,0,1,.3-.314.3.3,0,0,1,.314.295l.226,7.31a.3.3,0,0,1-.295.314Zm299.348-9.243h-.014a.3.3,0,0,1-.29-.318l.34-7.3a.3.3,0,0,1,.318-.29.3.3,0,0,1,.29.318l-.34,7.306A.3.3,0,0,1,617.188,1128.029Zm-299.8-5.376a.3.3,0,0,1-.3-.295l-.227-7.31a.305.305,0,1,1,.61-.019l.226,7.31a.3.3,0,0,1-.295.314Zm300.481-9.234h-.015a.3.3,0,0,1-.29-.318l.34-7.306a.321.321,0,0,1,.319-.29.3.3,0,0,1,.289.319l-.339,7.305A.305.305,0,0,1,617.868,1113.419Zm-300.934-5.386a.306.306,0,0,1-.3-.295l-.226-7.31a.3.3,0,0,1,.295-.314.294.294,0,0,1,.314.3l.227,7.31a.3.3,0,0,1-.3.314Zm301.613-9.225h-.014a.3.3,0,0,1-.29-.318l.339-7.305a.3.3,0,0,1,.319-.291.306.306,0,0,1,.29.319l-.34,7.3A.3.3,0,0,1,618.547,1098.808Zm-302.066-5.4a.3.3,0,0,1-.3-.295l-.227-7.309a.306.306,0,0,1,.295-.315.31.31,0,0,1,.314.3l.227,7.309a.3.3,0,0,1-.3.314Zm302.745-9.216h-.014a.305.305,0,0,1-.29-.319l.34-7.305a.3.3,0,1,1,.608.028l-.34,7.306A.3.3,0,0,1,619.226,1084.2Zm-303.2-5.4a.3.3,0,0,1-.305-.295l-.226-7.31a.3.3,0,0,1,.295-.314.308.308,0,0,1,.314.3l.227,7.31a.306.306,0,0,1-.3.314Zm303.878-9.208h-.014a.3.3,0,0,1-.29-.318l.339-7.306a.308.308,0,0,1,.318-.29.3.3,0,0,1,.29.318l-.339,7.306A.3.3,0,0,1,619.906,1069.586Zm-304.332-5.411a.305.305,0,0,1-.3-.3l-.226-7.31a.305.305,0,0,1,.295-.315.3.3,0,0,1,.314.3l.226,7.31a.306.306,0,0,1-.295.314Zm305.011-9.2h-.014a.3.3,0,0,1-.29-.318l.34-7.306a.3.3,0,0,1,.318-.29.305.305,0,0,1,.29.319l-.34,7.305A.3.3,0,0,1,620.585,1054.976Zm-305.464-5.421a.3.3,0,0,1-.3-.3l-.227-7.31a.3.3,0,0,1,.3-.314.3.3,0,0,1,.314.3l.227,7.31a.3.3,0,0,1-.295.314Zm306.144-9.19h-.015a.3.3,0,0,1-.29-.318l.287-6.162h-.507a.3.3,0,1,1,0-.61h1.145l-.316,6.8A.305.305,0,0,1,621.265,1040.365Zm-306.6-5.429a.305.305,0,0,1-.3-.3l-.043-1.367H320.9a.3.3,0,1,1,0,.61H314.95l.023.738a.305.305,0,0,1-.295.314Zm298.759-1.052h-7.313a.3.3,0,1,1,0-.61h7.313a.3.3,0,1,1,0,.61Zm-14.627,0h-7.313a.3.3,0,1,1,0-.61H598.8a.3.3,0,1,1,0,.61Zm-14.626,0h-7.313a.3.3,0,1,1,0-.61h7.313a.3.3,0,1,1,0,.61Zm-14.627,0h-7.313a.3.3,0,1,1,0-.61h7.313a.3.3,0,1,1,0,.61Zm-14.626,0h-7.313a.3.3,0,1,1,0-.61h7.313a.3.3,0,0,1,0,.61Zm-14.627,0h-7.313a.3.3,0,1,1,0-.61h7.313a.3.3,0,1,1,0,.61Zm-14.626,0h-7.314a.3.3,0,0,1,0-.61h7.314a.3.3,0,0,1,0,.61Zm-14.627,0h-7.313a.3.3,0,1,1,0-.61h7.313a.3.3,0,1,1,0,.61Zm-14.626,0H489.1a.3.3,0,0,1,0-.61h7.314a.3.3,0,0,1,0,.61Zm-14.627,0h-7.313a.3.3,0,1,1,0-.61h7.313a.3.3,0,1,1,0,.61Zm-14.626,0h-7.313a.3.3,0,1,1,0-.61h7.313a.3.3,0,0,1,0,.61Zm-14.626,0h-7.314a.3.3,0,0,1,0-.61h7.314a.3.3,0,0,1,0,.61Zm-14.627,0H430.6a.3.3,0,1,1,0-.61h7.313a.3.3,0,1,1,0,.61Zm-14.627,0h-7.313a.3.3,0,0,1,0-.61h7.313a.3.3,0,1,1,0,.61Zm-14.626,0h-7.313a.3.3,0,1,1,0-.61h7.313a.3.3,0,1,1,0,.61Zm-14.627,0h-7.313a.3.3,0,1,1,0-.61h7.313a.3.3,0,1,1,0,.61Zm-14.626,0H372.09a.3.3,0,1,1,0-.61H379.4a.3.3,0,1,1,0,.61Zm-14.627,0h-7.313a.3.3,0,1,1,0-.61h7.313a.3.3,0,1,1,0,.61Zm-14.626,0h-7.313a.3.3,0,1,1,0-.61h7.313a.3.3,0,1,1,0,.61Zm-14.627,0H328.21a.3.3,0,1,1,0-.61h7.313a.3.3,0,1,1,0,.61Z" fill="#afd6ff"/>
      </g>
    </g>
    <g id="Group_813" data-name="Group 813">
      <rect id="Rectangle_27" data-name="Rectangle 27" width="69.476" height="7.313" transform="translate(441.234 1248.358)" fill="#8088c2"/>
    </g>
    <g id="Group_814" data-name="Group 814">
      <path id="Path_441" data-name="Path 441" d="M504.767,1289.446h-57.59l-1.83-33.774H506.6Z" fill="#8792ce"/>
    </g>
    <g id="Group_815" data-name="Group 815" opacity="0.28">
      <path id="Path_442" data-name="Path 442" d="M506.6,1255.672H445.348l1.829,33.774h7.574c.745-5.256,2.229-10.855,5.071-15.348,5.135-8.12,30.48-11.312,46.455-12.53Z" fill="#370c62"/>
    </g>
    <g id="Group_816" data-name="Group 816">
      <path id="Path_443" data-name="Path 443" d="M556.723,1307.729H400.1a18.283,18.283,0,0,1,18.283-18.283H538.439a18.284,18.284,0,0,1,18.284,18.283Z" fill="#676e9c"/>
    </g>
  </g>
  <g id="Group_823" data-name="Group 823" transform="translate(-172.147 -978.083)">
    <path id="Path_444" data-name="Path 444" d="M462.625,1307.729H251.4c-8.068,0-14.609-6.024-14.609-13.455v-8c0-7.431,6.541-13.455,14.609-13.455h211.23a24.357,24.357,0,0,0-.389,34.5Z" fill="#b75742"/>
    <path id="Path_445" data-name="Path 445" d="M459.363,1276.818H342.2c-8.068,0-14.609,6.024-14.609,13.456h0c0,7.431,6.541,13.455,14.609,13.455H459.373A24.137,24.137,0,0,1,459.363,1276.818Z" fill="#fae0b2"/>
    <g id="Group_818" data-name="Group 818">
      <path id="Path_446" data-name="Path 446" d="M440.933,1248.572c.307-.512-.16-1.1-.87-1.1H275.776c-8.76,0-13.167,5.676-13.167,12.677h0c0,7,4.407,12.678,13.167,12.678H440.094c.713,0,1.182-.6.871-1.11h0A21.915,21.915,0,0,1,440.933,1248.572Z" fill="#f47458"/>
      <path id="Path_447" data-name="Path 447" d="M440.228,1249.828H332.318c-10.282,0-14.639,4.756-14.639,10.623s4.357,10.623,14.639,10.623H440.592A21.823,21.823,0,0,1,440.228,1249.828Z" fill="#f7cc7f"/>
    </g>
    <g id="Group_819" data-name="Group 819">
      <path id="Path_448" data-name="Path 448" d="M424.462,1254.863h-7.214c-1.551,0-2.809.463-2.809,1.034v.092h10.023Z" fill="#b75742"/>
      <path id="Path_449" data-name="Path 449" d="M430.616,1257.454c0-1.431-1.884-2.591-4.208-2.591H417.15c1.762,0,3.192.88,3.192,1.966L420.3,1284.6l5.115-3.572,5.214,3.572Z" fill="#f47458"/>
    </g>
    <g id="Group_821" data-name="Group 821">
      <path id="Path_450" data-name="Path 450" d="M406.121,1246.554H329.078c-6.832,0-12.37-4.928-12.37-11.006h0c0-6.078,5.538-11.006,12.37-11.006h77.043a15.461,15.461,0,0,0-.55,21.386Z" fill="#fae0b2"/>
      <path id="Path_451" data-name="Path 451" d="M316.715,1235.548h0c0-6.078,5.669-11.006,12.663-11.006H407.59a.616.616,0,0,0,.656-.575h0a.618.618,0,0,0-.656-.565H283.517c-7.718,0-13.975,5.438-13.975,12.146h0c0,6.708,6.257,12.146,13.975,12.146H407.59a.618.618,0,0,0,.656-.565h0a.617.617,0,0,0-.656-.575H329.378C322.384,1246.554,316.715,1241.626,316.715,1235.548Z" fill="#466eb6"/>
      <g id="Group_820" data-name="Group 820">
        <path id="Path_452" data-name="Path 452" d="M392.669,1229.951h-8.547c-1.838,0-3.328.454-3.328,1.013v.091h11.875Z" fill="#184655"/>
        <path id="Path_453" data-name="Path 453" d="M399.959,1232.492c0-1.4-2.232-2.541-4.986-2.541H384.005c2.089,0,3.782.863,3.782,1.927l-.052,27.239,6.06-3.5,6.177,3.5Z" fill="#3c8f7c"/>
      </g>
    </g>
    <g id="Group_822" data-name="Group 822">
      <path id="Path_454" data-name="Path 454" d="M438.368,1199.8h-166.4c-5.167,0-9.356,3.72-9.356,8.309v6.988c0,4.589,4.189,8.309,9.356,8.309h166.4l-.087-.08A15.592,15.592,0,0,1,438.368,1199.8Z" fill="#b75742"/>
      <path id="Path_455" data-name="Path 455" d="M435.422,1203.293H346.466c-5.167,0-9.356,3.72-9.356,8.309h0c0,4.589,4.189,8.309,9.356,8.309h88.955A15.306,15.306,0,0,1,435.422,1203.293Z" fill="#fae0b2"/>
    </g>
  </g>
  <g id="Group_825" data-name="Group 825" transform="translate(-172.147 -978.083)">
    <path id="Path_456" data-name="Path 456" d="M250.793,1289.974s-.723,7.336-2.58,8.683-4.333,6.33-3.1,9.023,6.438,1.751,6.438,1.751,3.1-2.828,3.374-8.788,2.136-8.99,2.136-8.99Z" fill="#f7a491"/>
    <path id="Path_457" data-name="Path 457" d="M280.2,1292.9s.585,7.4.11,9.808c-.254,1.288-1.671,3.939-1.021,5.151a3.26,3.26,0,0,0,1.393,1.515l18.851.3s-.041-2.378-9.008-4.95a8.574,8.574,0,0,1-3.394-2.575c-1.21-1.344-1.316-7.863-1.316-7.863Z" fill="#f7a491"/>
    <path id="Path_458" data-name="Path 458" d="M293.66,1194.517s2.15,12.018.738,19.9-7.32,81.3-7.32,81.3l-8.984.1s-1.65-30.059-1.367-34.3a63.312,63.312,0,0,1,2.246-10.792l.179-25.694,9.5-32.358Z" fill="#3c8f7c"/>
    <path id="Path_459" data-name="Path 459" d="M271.979,1187.552s-8.939,8.631-10.529,20.715c-.966,7.345,1.875,26.737-.84,36.267-1.47,5.159-6.747,15.177-7.594,21.843s-4.394,24.93-4.394,24.93l44.082,7.281c5.158-37.218,6.572-72.1,1.762-103.259l-1.762-6.066Z" fill="#355389"/>
    <path id="Path_460" data-name="Path 460" d="M254.162,1304.925a8.308,8.308,0,0,1-8.142-3.4c-1.028,2-1.659,4.505-.9,6.151,1.238,2.694,6.438,1.751,6.438,1.751A11.164,11.164,0,0,0,254.162,1304.925Z" fill="#f47458"/>
    <path id="Path_461" data-name="Path 461" d="M290.525,1304.732a4.132,4.132,0,0,1-.987-.452,15.28,15.28,0,0,1-9.591-.376c-.475,1.344-1.134,2.929-.992,3.947a2.657,2.657,0,0,0,.722,1.68l19.856.151S299.492,1307.3,290.525,1304.732Z" fill="#f47458"/>
    <g id="Group_824" data-name="Group 824">
      <path id="Path_462" data-name="Path 462" d="M318.989,1215.542s-.888-.954-1.159-1.294c-.317-.4-1.174-1.66-1.174-1.66s-2.776-4.537-2.419-4.71,1.274.348,1.545.569.609.456.88.677a.693.693,0,0,0,.964-.1c.3-.31-.584-1.423-.968-1.747a55.97,55.97,0,0,0-5.334-3.327c-.458-.28-3.8-9.011-5.191-11.915h0c-2.128-4.818-4.07-9.874-4.293-10.385l-2.68-22.3-8.7-2.264s2.62,24.79,2.895,26.016c.131.583,5.942,11.38,5.946,11.378,3.2,5.141,6.035,9.664,6.554,10.548,0,0,.832,3.049,1.246,5.02a17.309,17.309,0,0,0,1.8,4.165,12.975,12.975,0,0,0,2.167,3.86c1.329,1.634.828-.523.828-.523s-1.911-3.468-1.607-3.571c.233-.08,1.163,1.876,2.614,3.7.373.469.743.93,1.087,1.351.9,1.106,1.847.87,1.091-.436a14.047,14.047,0,0,0-1.137-1.709,11.669,11.669,0,0,1-.969-1.665,15.289,15.289,0,0,1-.988-1.721c.072,0,.1-.284.507.2.495.584,1.268,2.055,2.064,2.857.451.455,1.335,1.462,1.335,1.462a13.556,13.556,0,0,0,1.721,1.408c.583-.376-.265-1.76-.96-2.3a9.519,9.519,0,0,0-1.224-1.6s-1.466-2.524-1.106-2.737c.294-.175,4.987,5.194,5.545,4.776C320.327,1217.219,318.989,1215.542,318.989,1215.542Z" fill="#f48c7f"/>
      <path id="Path_463" data-name="Path 463" d="M297.417,1170.88c1.128-.424,3.338-3.9,4.247,1.62s1.147,9.333,1.147,9.333c2.941,7.066,8.524,21.2,8.524,21.2-2.12,1.7-7.7,2.049-7.7,2.049a158.375,158.375,0,0,1-10.246-20.987A18.381,18.381,0,0,1,297.417,1170.88Z" fill="#1c3b73"/>
      <path id="Path_464" data-name="Path 464" d="M310.281,1207.65s2.555,1.446,3.915.257a1.955,1.955,0,0,1-1.63.976A3.913,3.913,0,0,1,310.281,1207.65Z" fill="#f47458"/>
    </g>
    <path id="Path_465" data-name="Path 465" d="M291.754,1142.209s2.593,1.2,6.1,8.3c3.27,6.616,3.806,21.992,3.806,21.992s-5.2,1.653-8.19,1.084S291.754,1142.209,291.754,1142.209Z" fill="#1c3b73"/>
    <path id="Path_466" data-name="Path 466" d="M281.936,1139.982s-1.735.144-10.551,2.023a8.519,8.519,0,0,0-4.553,3.493c-4.507,8.013-8.474,22.364-8.474,22.364s7.364,2.409,9.924,2.409l3.031-9.55s3.446,20.145,2.023,23.558-4.986,12.068-4.986,12.068.057,1.846,13.518,3.263a52.946,52.946,0,0,0,12.136-.589s-1.225-13.081-.138-18.767c1.771-9.261,5.223-20.349,5.4-21.759.284-2.276-4.96-15.155-7.67-16.37a16.649,16.649,0,0,0-2.891-1.2A47.26,47.26,0,0,0,281.936,1139.982Z" fill="#355389"/>
    <path id="Path_467" data-name="Path 467" d="M294.846,1196.924l-16.693-2.748,3.9-24.775,17.57,3.444Z" fill="#f7cc7f"/>
    <path id="Path_468" data-name="Path 468" d="M297.6,1182.868c-.032-.128-1.854.373-3.108-.168-.25-.108.868-.717,1.042-.927.023-.028,2.2-.88,2.2-1.747s-1.77-.65-1.77-.65-5.131,1.264-5.926,1.806a6.72,6.72,0,0,0-1.226,1.044,4.689,4.689,0,0,1-.761.04c-4.442-.278-11.329-2.632-21.788-6.407l1.078-5.661a61.123,61.123,0,0,1-8.02-2.032c-.735,4.335-2.233,11.808-1.585,13.414.454,1.126,6.017,2.9,12.259,4.6,7.951,2.175,10.157,2.122,17.261,2.985,2.153.252,4.945,1.463,6.051,1.683,1.645.328,2.188.623,3.187-.082.842-.594,1.106-2.406,1.2-3.54A11.043,11.043,0,0,0,297.6,1182.868Z" fill="#f7a491"/>
    <path id="Path_469" data-name="Path 469" d="M263.99,1163.637c-3.6,1.272-4.162.712-5.632,4.225s-2.529,14.215-1.151,15.223,15.5,5.834,28.579,6.178c.993-1.459,0-8.985,0-8.985-12.786-2.756-17.927-5.194-17.927-5.194.795-4.928,2.332-11.924,2.332-11.924A20.206,20.206,0,0,1,263.99,1163.637Z" fill="#355389"/>
    <path id="Path_470" data-name="Path 470" d="M283.11,1130.853s-.282,6.446-1.1,8.819,1.722,10.982,6.86,12.238c4.63,1.132,1.289-6.911.647-10.337-.071-.375.827-12.311.827-12.311Z" fill="#f7a491"/>
    <path id="Path_471" data-name="Path 471" d="M290,1133.014c.4-2.036.778-3.724.778-3.724l-7.666,1.563s-.058,1.319-.2,2.982A6.193,6.193,0,0,0,290,1133.014Z" fill="#f47458"/>
    <path id="Path_472" data-name="Path 472" d="M286.185,1108.484c-9.646-.353-14.236,7.349-14.364,17.1s.3,10.519-4.368,16.636-7.773,19.225-12.578,20.939c8.9,6.943,26.724,3.692,38.518,5.1s11.821-.1,11.821-.1c-3.419-14.457-8.639-22.805-8.639-27.526,0-9.017.733-17.217-.928-23.676C293.739,1109.544,289.3,1108.6,286.185,1108.484Z" fill="#a467b4"/>
    <path id="Path_473" data-name="Path 473" d="M285.428,1113.316a8.785,8.785,0,0,0-4.746,3.8c-1.736,2.964-2.6,11.475,3.788,15.107s10.926-2.187,10.733-7.631S293.48,1111.95,285.428,1113.316Z" fill="#f7a491"/>
    <path id="Path_474" data-name="Path 474" d="M279.425,1122.44c4.5-2.254,7.892-8.091,7.892-8.091a42.309,42.309,0,0,1,7.493,6.424c-.647-5.293-3.544-8.12-8.137-7.908C284.271,1113.148,279.425,1114.632,279.425,1122.44Z" fill="#355389"/>
  </g>
  <g id="Group_826" data-name="Group 826" transform="translate(-172.147 -978.083)">
    <path id="Path_475" data-name="Path 475" d="M660.414,1216.363l-4.462,39.463s2.181,8.345,1.918,10.716-4.85,33.472-4.85,33.472l.207,1.708.112,5.061-17.145.128a77.015,77.015,0,0,0,8.668-4.768,3.643,3.643,0,0,0,1.8-2.5c1.35-9.586-1.681-41.535-1.681-41.535l-2.1-41.622Z" fill="#f7a491"/>
    <path id="Path_476" data-name="Path 476" d="M654.709,1296.74l-9.234-.541s-.541-35.688-1.8-43.439-2-33.637-.721-43.619c1.1-8.589,5.213-22.327,5.213-22.327l14.253,2.861,2.884.721-7.751,65.068s.718,4.394,1.079,8.9S654.709,1296.74,654.709,1296.74Z" fill="#a467b4"/>
    <path id="Path_477" data-name="Path 477" d="M673.927,1223.629c.962.24,2.441,34.11,3.238,35.611,5.048,9.517,6.248,38.45,6.248,38.45l2.082,4.052-.477,3.9s-3.768,2.138-6.412.7l.41-3.91.312-5.223-12.737-36.047-6.969-36.768Z" fill="#f7a491"/>
    <path id="Path_478" data-name="Path 478" d="M653.421,1308.084h-17.7c-.654-.059-.814-.588-.587-.914.468-.672,3.92-2.286,6.241-3.356,4.07.424,11.226-1.237,11.868-2.171C653.614,1303.514,653.785,1308,653.421,1308.084Z" fill="#0037d3"/>
    <path id="Path_479" data-name="Path 479" d="M685.485,1301.731s-1.45,3.022-3.15,2.894-3.309-2.214-3.309-2.214a15.564,15.564,0,0,0-.339,4.547c.3,1.614,2.719,3.272,4.376,2.549S686.972,1305.045,685.485,1301.731Z" fill="#0037d3"/>
    <path id="Path_480" data-name="Path 480" d="M666.414,1182.489a17.857,17.857,0,0,0,.811,3.785,84.263,84.263,0,0,1,5.926,11.2,44.275,44.275,0,0,1,2.647,10.3c1.86,10.813,1.261,43.8,1.261,43.8a64.873,64.873,0,0,1,4.687,16.582c1.351,9.463,2.346,25.121,2.346,25.121l-6.894,1.757-14.017-42.018s-6.666-36.794-8.829-41.66-6.232-24.625-6.232-24.625Z" fill="#a467b4"/>
    <path id="Path_481" data-name="Path 481" d="M677.021,1244.764c0,.006,0,.006-.005,0Z" fill="#f47458"/>
    <path id="Path_482" data-name="Path 482" d="M606.362,1120.745c.157-1.455,4.177-2.627,5.359-2.975s.416-.065,1.728.357c.16.051,4.132,6.107,4.132,6.107,1.253,1.972,12.744,19.534,16.614,22.2,3.954,2.723,19.708,7.472,19.708,7.472l.721,10.057s-21.751-7.455-26.406-11.453c-3.856-3.31-11.541-19.248-15.205-25.122l0,0C612.055,1126.161,606.206,1122.2,606.362,1120.745Z" fill="#f7a491"/>
    <path id="Path_483" data-name="Path 483" d="M643.219,1155.4c.283-.565-5.881-7.937-5.881-7.937-6.153-5.109-17.014-21.116-17.014-21.116-6.546,2.309-7.939,2.957-7.939,2.957,9.6,16.941,14.157,24.487,18.114,26.351s14.84,4.833,14.84,4.833Z" fill="#231f20"/>
    <path id="Path_484" data-name="Path 484" d="M661.828,1150.967c9.681.138,13.4-1.357,20.91,16.3,1.306,3.072,2.052,5.289,2.072,5.343,0,0-6.607,2.968-8.973,3.921,0,0-2.325-7.115-3.284-6.29s-1.437,15.544.948,20.473c7.79,15.952,6.6,65.311,6.9,66.923,0,0-36.025,2.6-44.2.89,0,0,10.675-82.675,10.269-83.628s-2.883-5.122-.856-9.842c.362-.842,1.264-3.365.631-3.538a89.268,89.268,0,0,1-12.437-5.081l3.537-8.977s10.95,2.5,14.667,2.964a86.869,86.869,0,0,0,9.77.536Z" fill="#231f20"/>
    <path id="Path_485" data-name="Path 485" d="M687.964,1186.939c.33,1.9-1.005,21.432-1.559,25.372.185,7.607-2.514,9.341-3.963,11.686,0,0-3.1,1.6-3.219,1.365-.155-.285.148-.676.626-1.012.186-.127.434-.191.634-.322s.382-.374.554-.491a3.119,3.119,0,0,1,.712-.376,8.472,8.472,0,0,1,.505-1.022c.22-.379.559-.8.608-.909.277-.661-.046-.434-.046-.434-.316.517-2.062,2.625-2.062,2.625s-3.325,2.574-3.373,2.31a2.208,2.208,0,0,1,.608-1.251c.144-.185.545-.415.743-.636.153-.166.289-.4.483-.592.2-.21.5-.338.712-.553a7.024,7.024,0,0,0,.641-1.015c.811-1.057,1.107-1.871.767-1.534-.5.506-1.264,2.565-3.577,4.208-.391.267-.655.366-.694.2a1.555,1.555,0,0,1,.275-1.029c.2-.289.617-.459.887-.827.157-.215.247-.508.408-.74.64-.921.925-.438,1.522-4.032a3.592,3.592,0,0,0-.767.488c-.254.219-1.467,2.3-1.906,1.851s2.07-5.269,2.07-5.269l2.088-2.728c-.469-18.537-1.037-22.975-1.157-23.127C680.484,1189.147,687.056,1181.715,687.964,1186.939Z" fill="#f7a491"/>
    <path id="Path_486" data-name="Path 486" d="M679.7,1174.236a18.25,18.25,0,0,0-3.864,2.3c3.42,9.138,4.429,13.35,4.278,15.612s.282,18.8.282,18.8a15.215,15.215,0,0,0,6.916,1.979c2.826-16.818,2.544-24.874,1.7-28.831s-2.744-7.623-4.2-11.477S679.7,1174.236,679.7,1174.236Z" fill="#231f20"/>
    <path id="Path_487" data-name="Path 487" d="M661.454,1143.294s.269,6.126,1.047,8.381-1.636,10.437-6.519,11.63-.086-9.718-.166-12.092a89.134,89.134,0,0,0-1.647-9.405Z" fill="#f7a491"/>
    <path id="Path_488" data-name="Path 488" d="M654.908,1145.347c-.382-1.934-.739-3.539-.739-3.539l7.285,1.486s.055,1.253.187,2.834A5.885,5.885,0,0,1,654.908,1145.347Z" fill="#f47458"/>
    <path id="Path_489" data-name="Path 489" d="M659.068,1123.746c8.9-.116,16.252,4.344,15.687,12.258s-5.224,12.9-.563,16.572,9.9,13.992,9.9,13.992c-6.369,14.7-27.541,12.754-34.493,9.682-11.056-4.886-12.261-28.784-12.261-28.784,7.915,2.359,14.9,1.347,13.3-3.7s-1.323-11.59,1.5-15.383S657.5,1123.766,659.068,1123.746Z" fill="#032b9c"/>
    <path id="Path_490" data-name="Path 490" d="M658.933,1126.41a8.669,8.669,0,0,1,3.95,5.038c1.027,3.1.848,8.48-2.543,11.972-4.867,5.011-8.9-1.778-8.9-6.955C651.43,1130.459,655.306,1125.153,658.933,1126.41Z" fill="#f7a491"/>
    <path id="Path_491" data-name="Path 491" d="M652.2,1131.881c2.694-3.607,6.689-4.482,11.082,1.235-.218-3.4-2.952-7.181-5.585-7.48C653.591,1125.636,652.2,1131.881,652.2,1131.881Z" fill="#fff"/>
    <path id="Path_492" data-name="Path 492" d="M586.213,1089.487l26.7,33.8.024.03a1.455,1.455,0,1,0,2.283-1.8c-.011-.015-.026-.033-.038-.047l-28.1-32.678-.01-.011a.557.557,0,0,0-.858.709Z" fill="#184655"/>
    <path id="Path_493" data-name="Path 493" d="M609.215,1118.609l3.7,4.679.024.03a1.455,1.455,0,0,0,1.927.323,1.456,1.456,0,0,1-2.367.116l-.023-.029-3.847-4.871C608.819,1118.771,609.018,1118.688,609.215,1118.609Z" fill="#f47458"/>
    <path id="Path_494" data-name="Path 494" d="M609.347,1116.527s-3.948,3.5-2.956,4.965c1.1,1.618,2.5,2.49,2.575,2a13.806,13.806,0,0,0-.847-2.846,10.94,10.94,0,0,0,1.494-2.437C609.858,1117.358,610.041,1116.475,609.347,1116.527Z" fill="#f7a491"/>
    <path id="Path_495" data-name="Path 495" d="M611.193,1118.4s2.485,1.07,2.626.763-.37-1.031-.37-1.031-3.344-2.54-3.466-1.629S611.193,1118.4,611.193,1118.4Z" fill="#f7a491"/>
    <path id="Path_496" data-name="Path 496" d="M606.8,1117.77s2.147-2.434,2.231-1.622c.1.98-1.689,3.819-2.568,3.819S605.585,1119.122,606.8,1117.77Z" fill="#f7a491"/>
  </g>
</svg>
